<?xml version="1.0" standalone="no"?>
<!DOCTYPE svg PUBLIC "-//W3C//DTD SVG 1.1//EN" "http://www.w3.org/Graphics/SVG/1.1/DTD/svg11.dtd" >
<svg xmlns="http://www.w3.org/2000/svg">
<metadata>Generated by IcoMoon</metadata>
<defs>
<font id="icomoon" horiz-adv-x="1024">
<font-face units-per-em="1024" ascent="960" descent="-64" />
<missing-glyph horiz-adv-x="1024" />
<glyph unicode="&#x20;" horiz-adv-x="512" d="" />
<glyph unicode="&#xe900;" glyph-name="cart" d="M219.648 788.48h-88.576c-4.096 0-7.68 3.584-7.68 7.68v18.944c0 4.096 3.584 7.68 7.68 7.68h88.576c4.096 0 7.68-3.584 7.68-7.68v-18.944c0-4.096-3.584-7.68-7.68-7.68zM707.072 263.68h-349.184c-4.096 0-7.68 3.584-7.68 7.68v18.944c0 4.096 3.584 7.68 7.68 7.68h349.696c4.096 0 7.68-3.584 7.68-7.68v-18.944c-0.512-4.096-3.584-7.68-8.192-7.68zM869.376 720.896h-626.176v34.304h626.176c4.096 0 7.68-3.584 7.68-7.68v-18.944c0-4.096-3.584-7.68-7.68-7.68zM735.232 409.6l108.032 335.36c1.536 4.096 5.632 6.144 9.728 5.12l17.92-5.632c4.096-1.536 6.144-5.632 5.12-9.728l-108.032-335.872c-1.536-4.096-5.632-6.144-9.728-5.12l-17.92 5.632c-4.096 2.048-6.656 6.144-5.12 10.24zM765.44 398.336l-357.376-29.696c-4.096-0.512-8.192 2.56-8.192 7.168l-1.536 18.944c-0.512 4.096 2.56 8.192 7.168 8.192l357.376 29.696c4.096 0.512 8.192-2.56 8.192-7.168l1.536-18.944c0-4.096-3.072-8.192-7.168-8.192zM371.712 272.384l-18.432-5.12c-4.096-1.024-8.192 1.024-9.216 5.12l-148.48 534.016c-1.024 4.096 1.024 8.192 5.12 9.216l18.432 5.12c4.096 1.024 8.192-1.024 9.216-5.12l148.48-534.016c1.536-3.584-1.024-8.192-5.12-9.216zM342.016 221.696c-40.96 0-74.24-33.28-74.24-74.24s33.28-74.24 74.24-74.24 74.24 33.28 74.24 74.24c0 40.96-33.28 74.24-74.24 74.24zM342.016 107.52c-22.016 0-39.936 17.92-39.936 39.936s17.92 39.936 39.936 39.936c22.016 0 39.936-17.92 39.936-39.936s-17.92-39.936-39.936-39.936zM743.936 221.696c-40.96 0-74.24-33.28-74.24-74.24s33.28-74.24 74.24-74.24c40.96 0 74.24 33.28 74.24 74.24s-33.28 74.24-74.24 74.24zM743.936 107.52c-22.016 0-39.936 17.92-39.936 39.936s17.92 39.936 39.936 39.936c22.016 0 39.936-17.92 39.936-39.936s-17.92-39.936-39.936-39.936z" />
<glyph unicode="&#xe901;" glyph-name="cart-active" d="M219.648 772.096h-89.6c-4.096 0-7.68 3.584-7.68 7.68v19.456c0 4.096 3.584 7.68 7.68 7.68h89.6c4.096 0 7.68-3.584 7.68-7.68v-19.456c0-4.096-3.584-7.68-7.68-7.68zM711.68 242.688h-353.28c-4.096 0-7.68 3.584-7.68 7.68v19.456c0 4.096 3.584 7.68 7.68 7.68h353.28c4.096 0 7.68-3.584 7.68-7.68v-19.456c0-4.608-3.584-7.68-7.68-7.68zM875.008 704h-631.808v34.816h631.808c4.096 0 7.68-3.584 7.68-7.68v-19.456c0-4.608-3.584-7.68-7.68-7.68zM739.328 389.632l109.056 338.432c1.536 4.096 5.632 6.144 9.728 5.12l18.432-6.144c4.096-1.536 6.144-5.632 5.12-9.728l-109.056-338.432c-1.536-4.096-5.632-6.144-9.728-5.12l-18.432 6.144c-4.096 1.536-6.144 5.632-5.12 9.728zM770.048 378.368l-360.448-30.208c-4.096-0.512-8.192 2.56-8.192 7.168l-1.536 18.944c-0.512 4.096 2.56 8.192 7.168 8.192l360.448 30.208c4.096 0.512 8.192-2.56 8.192-7.168l1.536-18.944c0-4.096-3.072-7.68-7.168-8.192zM372.736 251.392l-18.432-5.12c-4.096-1.024-8.192 1.024-9.216 5.12l-150.016 539.136c-1.024 4.096 1.024 8.192 5.12 9.216l18.432 5.12c4.096 1.024 8.192-1.024 9.216-5.12l149.504-539.136c2.048-3.584-0.512-8.192-4.608-9.216zM343.040 200.192c-41.472 0-74.752-33.792-74.752-74.752s33.792-74.752 74.752-74.752 74.752 33.792 74.752 74.752-33.28 74.752-74.752 74.752zM748.544 200.192c-41.472 0-74.752-33.792-74.752-74.752s33.792-74.752 74.752-74.752 74.752 33.792 74.752 74.752-33.28 74.752-74.752 74.752zM326.656 342.016l-99.328 378.88 640.512 9.216-102.912-353.792z" />
<glyph unicode="&#xe902;" glyph-name="close" d="M524.8 859.136c-228.352 0-413.184-184.832-413.184-413.184s184.832-413.184 413.184-413.184c228.352 0 413.184 184.832 413.184 413.184s-184.832 413.184-413.184 413.184zM698.368 318.464c13.312-13.312 13.312-35.328 0-49.152-13.312-13.312-35.328-13.312-49.152 0l-123.904 123.904-128-128c-13.312-13.312-35.328-13.312-49.152 0-13.312 13.312-13.312 35.328 0 49.152l128 128-131.072 131.584c-13.312 13.312-13.312 35.328 0 49.152v0c13.312 13.312 35.328 13.312 49.152 0l131.072-131.072 127.488 127.488c13.312 13.312 35.328 13.312 49.152 0v0c13.312-13.312 13.312-35.328 0-49.152l-127.488-127.488 123.904-124.416z" />
<glyph unicode="&#xe903;" glyph-name="index" d="M199.68 472.576v-367.616h629.76v367.616l-314.88 355.84-314.88-355.84zM793.6 140.8h-558.080v321.536l279.040 316.928 279.040-316.928v-321.536zM514.56 373.248c-65.024 0-120.32-52.736-120.32-118.272v-150.016h240.64v150.016c0 65.536-55.296 118.272-120.32 118.272zM599.040 140.8h-168.96v114.176c0 49.152 35.328 88.576 84.48 88.576s84.48-39.424 84.48-88.576v-114.176z" />
<glyph unicode="&#xe904;" glyph-name="index-active" d="M522.24 858.112l-317.44-359.424v-383.488h194.56v164.352c0 66.048 56.832 119.296 122.88 119.296s122.88-53.248 122.88-119.296v-164.352h194.56v383.488l-317.44 359.424zM522.24 369.152c-49.152 0-87.040-46.592-87.040-103.424v-150.528h174.080v150.016c0 57.344-37.888 103.936-87.040 103.936z" />
<glyph unicode="&#xe905;" glyph-name="message" d="M757.76 770.56h-485.376c-54.272 0-103.424-60.416-103.424-114.688v-387.072c0-54.272 49.152-87.040 103.424-87.040h58.368c0 0-10.752-47.104-54.272-96.256 83.968-11.264 199.168 96.256 199.168 96.256h282.112c54.272 0 97.28 32.768 97.28 87.040v387.072c0 54.272-43.008 114.688-97.28 114.688zM331.264 408.576c-29.696 0-54.272 24.064-54.272 54.272 0 29.696 24.064 54.272 54.272 54.272s54.272-24.064 54.272-54.272c-0.512-30.208-24.576-54.272-54.272-54.272zM511.488 408.576c-29.696 0-54.272 24.064-54.272 54.272 0 29.696 24.064 54.272 54.272 54.272 29.696 0 54.272-24.064 54.272-54.272s-24.576-54.272-54.272-54.272zM711.68 408.576c-29.696 0-54.272 24.064-54.272 54.272 0 29.696 24.064 54.272 54.272 54.272s54.272-24.064 54.272-54.272c0-30.208-24.064-54.272-54.272-54.272z" />
<glyph unicode="&#xe906;" glyph-name="mine" d="M508.416 797.184c-100.864 0-182.784-81.92-182.784-182.784s81.92-182.784 182.784-182.784 182.784 81.92 182.784 182.784-81.92 182.784-182.784 182.784zM508.416 465.92c-81.92 0-148.48 66.56-148.48 148.48s66.56 148.48 148.48 148.48c81.92 0 148.48-66.56 148.48-148.48s-66.56-148.48-148.48-148.48zM618.496 494.592l-12.288-31.232h-6.144c128.512-35.84 222.208-154.624 222.208-294.912 0-16.896-1.536-27.648-4.096-48.128h34.816c2.56 20.48 3.584 32.256 3.584 49.152 0 152.576-99.84 281.088-238.080 325.12zM427.008 463.36h-11.264l-12.8 29.696c-135.168-46.080-232.448-173.056-232.448-324.096 0-16.896 1.024-28.16 3.584-48.64h34.816c-2.56 20.48-4.096 31.744-4.096 48.128 0 140.8 94.208 259.072 222.208 294.912z" />
<glyph unicode="&#xe907;" glyph-name="mine-active" d="M513.536 807.936c-101.888 0-184.32-82.432-184.32-184.32s82.432-184.32 184.32-184.32 184.32 82.432 184.32 184.32-82.432 184.32-184.32 184.32zM625.152 501.76l-9.728-25.6c-29.696 9.216-60.928 13.824-93.184 13.824-35.84 0-70.656-6.144-102.912-16.896l-11.264 26.624c-136.192-46.592-234.496-174.080-234.496-326.144 0-16.896 1.024-27.648 3.584-48.128h684.544c2.56 20.48 3.584 31.744 3.584 48.64 0 154.112-100.864 282.624-240.128 327.68z" />
<glyph unicode="&#xe908;" glyph-name="next" d="M339.456 167.936l350.72 350.72 55.808-55.808-350.72-350.72-55.808 55.808zM338.944 758.272l55.808 55.808 350.72-350.72-55.808-55.808-350.72 350.72z" />
<glyph unicode="&#xe909;" glyph-name="noshow" d="M927.232 548.864c11.776 14.848 9.728 36.864-5.632 49.152-14.848 12.288-36.864 9.728-49.152-5.632-1.024-1.536-131.584-161.28-356.352-161.28-223.232 0-354.816 159.744-356.352 161.28-12.288 14.848-33.792 17.408-49.152 5.632-14.848-11.776-17.408-33.792-5.632-49.152 2.048-2.56 22.016-27.136 57.856-56.832l-60.928-74.24 53.76-44.032 64.512 76.8c26.112-16.896 56.832-33.792 91.648-48.128l-35.328-97.28 65.536-23.552 35.84 98.304c32.256-8.704 67.072-14.336 103.936-16.896v-105.984h69.632v105.984c37.888 2.56 73.216 8.704 105.984 17.408l35.84-98.304 65.536 24.064-35.328 96.768c32.768 13.824 61.952 29.696 87.552 46.080l62.976-77.824 54.272 44.032-60.928 74.752c36.864 31.232 57.856 56.32 59.904 58.88v0z" />
<glyph unicode="&#xe90a;" glyph-name="prev" d="M646.144 112.128l-350.72 350.72 55.808 55.808 350.72-350.72-55.808-55.808zM351.232 407.552l-55.808 55.808 350.72 350.72 55.808-55.808-350.72-350.72z" />
<glyph unicode="&#xe90b;" glyph-name="resourse" d="M885.76 568.832c0 37.888-30.72 68.608-68.608 68.608h-615.424c-37.888 0-68.608-30.72-68.608-68.608v-344.064c0-37.888 30.72-68.608 68.608-68.608h615.424c37.888 0 68.608 30.72 68.608 68.608v344.064zM855.040 243.2c0-28.16-23.040-51.2-51.2-51.2h-583.68c-28.16 0-51.2 23.040-51.2 51.2v307.2c0 28.16 23.040 51.2 51.2 51.2h583.68c28.16 0 51.2-23.040 51.2-51.2v-307.2zM633.856 488.96c-37.888 0-65.536-25.088-65.536-62.976v-57.344c0-37.888 27.648-74.752 65.536-74.752h257.024v195.072h-257.024zM855.040 330.24h-204.288c-28.16 0-46.592 27.648-46.592 55.808v23.040c0 28.16 18.432 44.032 46.592 44.032h204.288v-122.88zM709.632 437.76c-25.088 0-45.568-20.48-45.568-45.568s20.48-45.568 45.568-45.568 45.568 20.48 45.568 45.568c0 25.088-20.48 45.568-45.568 45.568zM709.632 380.416c-6.144 0-11.264 5.12-11.264 11.264s5.12 11.264 11.264 11.264c6.144 0 11.264-5.12 11.264-11.264s-5.12-11.264-11.264-11.264zM277.504 637.44l145.92 145.92 145.92-145.92h47.104l-193.024 193.024-193.024-193.024zM598.528 863.232l-116.224-116.224 23.552-23.552 92.672 93.184 179.2-179.2h46.592z" />
<glyph unicode="&#xe90c;" glyph-name="resourse-active" d="M637.44 448h258.56v82.432c0 38.4-32.256 71.168-70.144 71.168h-623.104c-37.888 0-69.632-32.768-69.632-71.168v-346.112c0-38.4 31.744-69.12 69.632-69.12h622.592c38.4 0 70.144 31.232 70.144 69.12v69.12h-258.56c-38.4 0-64 36.864-64 75.264v57.856c0.512 37.888 26.112 61.44 64.512 61.44zM713.728 397.824c-25.6 0-46.080-20.48-46.080-46.080s20.48-46.080 46.080-46.080c25.6 0 46.080 20.48 46.080 46.080s-20.48 46.080-46.080 46.080zM277.504 601.6l147.456 147.456 147.456-147.456h47.104l-194.56 194.56-194.56-194.56zM601.6 828.416l-117.248-117.76 23.552-24.064 93.696 94.72 180.736-179.712h47.616z" />
<glyph unicode="&#xe90d;" glyph-name="show" d="M506.88 631.296c-175.616 0-330.752-89.088-421.888-224.256 91.648-135.168 246.272-224.256 421.888-224.256s330.752 89.088 421.888 224.256c-91.136 135.68-246.272 224.256-421.888 224.256zM506.368 232.448c-137.728 0-275.456 69.632-347.136 175.616 71.68 105.984 209.408 175.616 347.136 175.616s275.456-69.632 347.136-175.616c-71.68-105.984-209.408-175.616-347.136-175.616zM635.392 407.040c0-70.975-57.537-128.512-128.512-128.512s-128.512 57.537-128.512 128.512c0 70.975 57.537 128.512 128.512 128.512s128.512-57.537 128.512-128.512zM481.792 750.592h49.664v-132.096h-49.664v132.096zM287.102 713.535l46.669 16.985 45.177-124.131-46.669-16.985-45.177 124.131zM109.35 605.191l35.117 35.117 93.405-93.405-35.117-35.117-93.405 93.405zM684.457 589.254l-46.669 16.985 45.177 124.131 46.669-16.985-45.177-124.131zM813.918 511.25l-35.117 35.117 93.405 93.405 35.117-35.117-93.405-93.405z" />
<glyph unicode="&#xe90e;" glyph-name="buytea" d="M467.627 659.627h175.445c12.971 51.2 49.835 81.92 68.608 93.184 35.157 21.845 21.845 68.267-17.067 49.493-37.888-18.432-37.888-19.115-61.781 13.312-26.283 35.84-54.955 3.413-67.243-10.581-11.947-13.653-25.941-15.701-46.421 6.827s-41.301 11.947-51.541-3.413c-16.384-24.235-37.888-27.648-65.195-10.24s-41.301-19.456-18.773-39.936 71.68-71.339 83.968-98.645zM766.293 504.32c-27.989 31.744-27.989 35.84-111.957 117.76h-195.925c0 0-84.992-69.632-166.912-174.421-115.371-172.032-8.533-445.44 285.355-426.667 428.715 53.248 257.707 405.845 189.44 483.328zM617.813 284.16c12.971 0 23.552-14.336 23.552-27.307s-10.581-27.307-23.552-27.307h-47.787v-41.984c0-12.971-7.509-23.552-20.48-23.552s-20.48 10.581-20.48 23.552v41.984h-51.2c-12.971 0-23.552 14.336-23.552 27.307s10.581 27.307 23.552 27.307h51.2v23.893h-51.2c-12.971 0-23.552 9.216-23.552 22.187s10.581 22.187 23.552 22.187h44.373l-61.44 59.392c-9.216 9.216-9.216 22.869 0 32.085s23.893 8.533 33.109-0.683l52.907-53.248c0.683 0 1.365-0.341 1.707-0.341 0 0 0 0 0 0l52.565 52.907c9.216 9.216 23.893 9.216 33.109 0s9.216-21.845 0-31.061l-61.44-59.392h45.056c12.971 0 23.552-9.216 23.552-22.187s-10.581-22.187-23.552-22.187h-47.787v-23.893h47.787zM304.128 567.808c-18.773 13.653-13.653 20.48 0 48.128 43.008 82.603-34.475 168.619-68.949 180.565s-72.363 34.475-92.843 63.488-36.181 27.648-41.301-28.331c-17.067-210.603 72.363-246.784 161.792-255.317 0 0 8.533-3.413 39.595-32.768 31.061-29.013 20.48 10.24 1.707 24.235zM250.88 595.115c-31.061 16.725-100.693 131.413-107.179 154.624s1.707 36.181 12.971 12.971c16.725-39.936 74.752-132.779 94.208-147.115s31.061-37.205 0-20.48z" />
<glyph unicode="&#xe90f;" glyph-name="calendar" d="M785.067 735.744h-76.459v43.691c0 13.312-10.581 23.893-23.893 23.893s-23.893-10.581-23.893-23.893v-43.691h-124.928v43.691c0 13.312-10.581 23.893-23.893 23.893s-23.893-10.581-23.893-23.893v-43.691h-125.269v43.691c0 13.312-10.581 23.893-23.893 23.893s-23.893-10.581-23.893-23.893v-43.691h-76.117c-39.595 0-71.68-32.085-71.68-71.68v-488.789c0-39.595 32.085-71.68 71.68-71.68h546.133c39.595 0 71.68 32.085 71.68 71.68v489.131c0 39.253-32.085 71.339-71.68 71.339zM808.96 175.616c0-12.971-10.581-23.893-23.893-23.893h-546.133c-13.312 0-23.893 10.581-23.893 23.893v488.789c0 13.312 10.581 23.893 23.893 23.893h76.459v-43.691c0-13.312 10.581-23.893 23.893-23.893s23.893 10.581 23.893 23.893v43.691h124.928v-43.691c0-13.312 10.581-23.893 23.893-23.893s23.893 10.581 23.893 23.893v43.691h125.269v-43.691c0-13.312 10.581-23.893 23.893-23.893s23.893 10.581 23.893 23.893v43.691h76.117c12.971 0 23.893-10.581 23.893-23.893v-488.789zM309.248 544.939h99.328v-69.632h-99.328v69.632zM462.165 544.939h99.328v-69.632h-99.328v69.632zM615.424 544.939h99.328v-69.632h-99.328v69.632zM309.248 443.904h99.328v-69.632h-99.328v69.632zM462.165 443.904h99.328v-69.632h-99.328v69.632zM615.424 443.904h99.328v-69.632h-99.328v69.632zM309.248 342.187h99.328v-69.632h-99.328v69.632zM462.165 342.187h99.328v-69.632h-99.328v69.632z" />
<glyph unicode="&#xe910;" glyph-name="cancellations" d="M431.787 862.037c-62.123 0-162.133-20.48-162.133-20.48v-82.944h324.267v82.944c0 0-100.011 20.48-162.133 20.48zM441.003 766.123c-20.48 0-37.205 16.725-37.205 37.205s16.725 37.205 37.205 37.205c20.48 0 37.205-16.725 37.205-37.205-0.341-20.821-16.725-37.205-37.205-37.205zM654.336 768.171c0 0-2.389 4.437-33.109 10.24v-36.864h-382.293v36.523c-10.24-5.803-26.283-10.24-26.283-10.24-42.667-11.947-76.117-36.523-76.117-81.579v-472.064c0-45.056 42.325-69.973 87.723-69.973h337.92c-15.019 23.893-23.552 55.637-23.552 89.771 0 112.64 88.064 201.728 200.704 201.728 0.341 0-2.048-2.731-2.048-2.731v253.269c0 45.056-37.888 67.925-82.944 81.92zM505.173 555.179c0-11.947-9.899-21.845-21.845-21.845h-222.549c-11.947 0-21.845 9.899-21.845 21.845v0.683c0 11.947 9.899 21.845 21.845 21.845h222.549c11.947 0 21.845-9.899 21.845-21.845v-0.683zM573.44 411.819c0-11.947-9.899-21.845-21.845-21.845h-290.816c-11.947 0-21.845 9.899-21.845 21.845v0.683c0 11.947 9.899 21.845 21.845 21.845h290.816c11.947 0 21.845-9.899 21.845-21.845v-0.683zM744.107 412.843c-104.448 0-189.44-84.651-189.44-189.44s84.651-189.44 189.44-189.44 189.44 84.651 189.44 189.44-84.992 189.44-189.44 189.44zM824.661 184.491c-25.6-47.445-114.688-48.128-114.688-48.128v-40.619l-82.261 80.896 82.261 80.213v-48.469c102.4-1.024 91.819 48.128 91.819 48.128 12.629 71.68-48.469 88.405-48.469 88.405 62.123-9.216 79.189-65.195 79.189-65.195s17.408-47.787-7.851-95.232z" />
<glyph unicode="&#xe911;" glyph-name="contact" d="M419.157 48.981c-6.144 0-12.629 1.365-18.773 4.096-16.043 7.168-25.941 22.528-25.941 40.277l-1.365 128.341c0 4.779-3.755 8.533-8.533 8.533h-157.013c-55.637 0-101.035 45.397-101.035 101.035v364.544c0 55.637 45.397 101.035 101.035 101.035h609.28c55.637 0 101.035-45.397 101.035-101.035v-364.544c0-55.637-45.397-101.035-101.035-101.035h-157.355c-7.509 0-14.677-2.731-20.48-7.509l-191.147-162.816c-8.192-7.168-18.432-10.923-28.672-10.923zM207.531 747.008c-28.331 0-51.2-22.869-51.2-51.2v-364.544c0-28.331 22.869-51.2 51.2-51.2h157.355c31.744 0 58.027-25.941 58.368-57.685l1.365-117.077 182.613 155.648c14.677 12.629 33.451 19.456 52.565 19.456h157.355c28.331 0 51.2 22.869 51.2 51.2v364.203c0 28.331-22.869 51.2-51.2 51.2h-609.621zM727.040 577.024h-425.984c-2.731 0-5.12 2.389-5.12 5.12v39.595c0 2.731 2.389 5.12 5.12 5.12h425.984c2.731 0 5.12-2.389 5.12-5.12v-39.595c0-2.731-2.389-5.12-5.12-5.12zM698.709 472.576h-325.973c-2.389 0-4.437 2.048-4.437 4.437v40.96c0 2.389 2.048 4.437 4.437 4.437h325.973c2.389 0 4.437-2.048 4.437-4.437v-40.96c0-2.389-2.048-4.437-4.437-4.437z" />
<glyph unicode="&#xe912;" glyph-name="eidt" d="M775.509 546.987c-2.389 0-8.875 11.947-16.725 11.947s-14.336-11.947-16.725-11.947h-4.779v-381.611c0-47.787-34.475-92.843-81.579-92.843h-329.728c-47.104 0-83.627 45.056-83.627 92.843v498.688c0 47.787 36.523 94.549 83.627 94.549h200.704c9.899 0 17.749 8.875 17.749 18.773s-7.851 18.773-17.749 18.773h-200.704c-66.901 0-121.173-64.512-121.173-132.096v-498.688c0-67.925 54.272-133.803 121.173-133.803h329.728c66.901 0 122.539 65.877 122.539 133.803v381.611h-2.731zM582.656 372.907h-252.928c-2.048 0-3.413 1.365-3.413 3.413v31.403c0 2.048 1.365 3.413 3.413 3.413h252.928c2.048 0 3.413-1.365 3.413-3.413v-31.403c0-2.048-1.365-3.413-3.413-3.413zM666.624 227.499h-343.723c-2.048 0-3.413 1.365-3.413 3.413v31.403c0 2.048 1.365 3.413 3.413 3.413h343.723c2.048 0 3.413-1.365 3.413-3.413v-31.403c0-2.048-1.707-3.413-3.413-3.413zM564.224 513.536l-33.109 33.109c-2.048 2.048-2.048 5.12 0 7.168l300.373 300.373c2.048 2.048 5.12 2.048 7.168 0l33.109-33.109c2.048-2.048 2.048-5.12 0-7.168l-300.373-300.373c-2.048-2.048-5.12-2.048-7.168 0z" />
<glyph unicode="&#xe913;" glyph-name="help" d="M512 836.779c-219.136 0-398.677-179.541-398.677-398.677s179.541-398.677 398.677-398.677c219.136 0 398.677 179.541 398.677 398.677 0 219.477-179.541 398.677-398.677 398.677zM512 89.259c-194.219 0-348.843 154.624-348.843 348.843 0 194.56 154.624 348.843 348.843 348.843s348.843-154.624 348.843-348.843c0-194.219-154.624-348.843-348.843-348.843zM506.88 289.28c-15.019 0-24.917-5.12-34.816-15.019s-15.019-19.797-15.019-34.816c0-15.019 5.12-24.917 15.019-34.816s19.797-15.019 34.816-15.019c15.019 0 24.917 5.12 34.816 15.019s15.019 19.797 15.019 34.816c0 15.019-5.12 24.917-15.019 34.816-9.899 10.24-19.797 15.019-34.816 15.019v0zM521.899 696.149c-49.493 0-89.429-15.019-119.125-44.715-34.816-29.696-49.493-69.291-49.493-119.125h74.411c0 29.696 5.12 54.613 19.797 69.291 15.019 19.797 34.816 29.696 69.291 29.696 24.917 0 44.715-5.12 59.392-19.797 15.019-15.019 19.797-34.816 19.797-54.613s-5.12-34.816-19.797-49.493l-15.019-15.019c-39.595-39.595-69.291-69.291-79.531-89.429-9.899-15.019-9.899-39.595-9.899-64.512v-9.899h74.411v9.899c0 15.019 5.12 29.696 9.899 44.715 5.12 15.019 15.019 24.917 29.696 34.816 34.816 29.696 54.613 44.715 59.392 54.613 19.797 19.797 24.917 49.493 24.917 84.309 0 39.595-15.019 74.411-39.595 99.328-29.013 30.037-63.829 39.936-108.544 39.936v0z" />
<glyph unicode="&#xe914;" glyph-name="institution" d="M909.995 100.181v334.507c0 50.517-45.397 89.771-95.915 89.771h-141.653v-50.859h141.653c22.528 0 45.056-16.384 45.056-38.912v-334.507h-217.771v622.592c0 56.32-44.373 102.4-98.987 102.4h-356.352c-54.613 0-98.987-46.080-98.987-102.4v-622.592h-63.829v-50.859h977.579v50.859h-90.795zM137.899 722.432c0 27.307 21.504 49.835 48.128 49.835h356.352c26.624 0 48.128-22.187 48.128-49.493v-620.885h-452.608v620.544zM253.611 531.627h241.323v-50.859h-241.323v50.859zM253.611 401.237h241.323v-50.859h-241.323v50.859zM253.611 270.848h241.323v-50.859h-241.323v50.859z" />
<glyph unicode="&#xe915;" glyph-name="invoice" d="M388.437 559.616h252.928v-59.051h-252.928v59.051zM388.437 365.056h252.928v-59.051h-252.928v59.051zM849.237 823.808h-677.205c-64.512 0-119.125-59.392-119.125-123.904v-87.040c6.827 1.024 16.043 1.707 23.893 1.707 100.011 0 181.589-81.237 181.589-181.248s-81.92-181.248-181.931-181.248c-7.851 0-16.725 0.683-23.552 1.707v-86.357c0-64.512 54.613-118.443 119.125-118.443h677.205c64.512 0 121.856 53.931 121.856 118.443v87.381c-10.24-1.365-19.797-2.389-29.696-2.389-100.011 0-181.589 81.237-181.589 181.248s81.92 181.248 181.931 181.248c9.899 0 19.115-1.024 29.355-2.389v87.381c0 64.853-57.344 123.904-121.856 123.904zM707.925 433.664c0-119.808 91.819-218.795 208.555-231.424v-34.475c0-36.181-31.403-67.243-67.243-67.243h-677.205c-36.181 0-64.512 31.403-64.512 67.243v35.157c114.005 15.019 202.069 112.64 202.069 230.741s-88.405 215.723-202.069 230.741v35.499c0 36.181 28.331 72.704 64.512 72.704h677.205c36.181 0 67.243-36.523 67.243-72.704v-34.816c-116.736-12.288-208.555-111.616-208.555-231.424z" />
<glyph unicode="&#xe916;" glyph-name="members" d="M698.709 813.227c-65.195 0-201.728 0-201.728 0s-132.437 0-201.728 0-196.608-253.952-196.608-253.952 263.168-515.072 397.995-515.072c135.168 0 398.336 517.12 398.336 517.12s-131.072 251.904-196.267 251.904zM664.917 513.195l-131.755-228.352c-7.509-13.312-22.187-20.139-36.181-19.115-14.336-1.024-28.672 5.803-36.181 19.115l-131.755 228.352c-10.581 18.432-4.437 41.984 13.995 52.565s41.984 4.437 52.565-13.995l101.376-175.445 101.376 175.445c10.581 18.432 34.133 24.917 52.565 13.995 18.432-10.581 24.576-34.133 13.995-52.565z" />
<glyph unicode="&#xe917;" glyph-name="my-bill" d="M961.536 492.373h-56.32c4.096-37.547 6.827-49.152 6.827-73.387 0-215.723-175.787-391.851-391.509-391.851-163.499 0-303.787 96.597-362.496 243.371h-53.589l-5.803 1.365-41.301-154.283 53.589-14.336 23.552 88.064c77.483-135.851 221.525-221.184 386.048-221.184 246.443 0 446.805 202.752 446.805 449.195 0 24.235-2.048 35.499-5.803 73.045zM520.533 799.232c121.515 0 230.4-47.445 302.080-139.605h62.123l7.168-2.048 41.301 154.283-53.589 14.336-29.696-111.616c-81.579 91.136-199.339 139.605-329.387 139.605-236.203 0.341-430.080-174.080-445.781-419.84h55.637c15.701 208.213 184.32 364.885 390.144 364.885zM669.696 665.088l-137.557-238.251-137.557 238.251-48.128-27.648 127.659-221.184h-92.16v-55.296h119.808v-33.109h-119.808v-55.296h119.808v-84.992h55.296v84.992h119.808v55.296h-119.808v33.109h119.808v55.296h-87.040l127.659 221.184z" />
<glyph unicode="&#xe918;" glyph-name="my-card" d="M870.741 799.232h-683.008c-52.907 0-95.573-43.008-95.573-95.573v-534.869c0-52.907 43.008-95.573 95.573-95.573h683.008c52.907 0 95.573 43.008 95.573 95.573v534.869c0.341 52.565-42.667 95.573-95.573 95.573zM187.733 748.715h683.008c24.917 0 45.056-20.139 45.056-45.056v-64.853h-773.12v64.853c0 24.917 20.48 45.056 45.056 45.056zM870.741 123.733h-683.008c-24.917 0-45.056 20.139-45.056 45.056v354.645h773.12v-354.645c0-24.917-20.139-45.056-45.056-45.056zM269.653 265.045h-22.528c-1.707 0-2.731 1.365-2.731 2.731v165.205c0 1.707 1.365 2.731 2.731 2.731h22.528c1.707 0 2.731-1.365 2.731-2.731v-165.205c0-1.365-1.365-2.731-2.731-2.731zM358.059 217.259h-22.869c-1.365 0-2.731 1.024-2.731 2.731v213.333c0 1.365 1.024 2.731 2.731 2.731h22.869c1.365 0 2.731-1.024 2.731-2.731v-213.333c-0.341-1.365-1.365-2.731-2.731-2.731z" />
<glyph unicode="&#xe919;" glyph-name="my-count" d="M822.613 277.333v-96.597c0-30.379-23.211-57.003-53.589-57.003h-578.901c-30.379 0-53.589 26.965-53.589 57.003v528.043c0 30.379 23.211 46.421 53.589 46.421h578.901c30.379 0 53.589-16.043 53.589-46.421v-107.179h44.373v107.179c0 55.979-41.984 97.621-97.963 97.621h-578.901c-55.979 0-97.963-41.301-97.963-97.621v-528.043c0-55.979 41.984-108.203 97.963-108.203h578.901c55.979 0 97.963 52.224 97.963 108.203v96.597h-44.373zM874.496 288.939h-250.88c-84.309 0-152.917 68.608-152.917 152.917s68.608 152.917 152.917 152.917h250.88c38.571 0 69.973-31.403 69.973-69.973v-165.888c0-38.571-31.403-69.973-69.973-69.973zM623.616 548.352c-58.709 0-106.155-47.787-106.155-106.155s47.787-106.155 106.155-106.155h250.88c12.971 0 23.211 10.581 23.211 23.211v165.888c0 12.971-10.581 23.211-23.211 23.211h-250.88zM773.803 444.587c0-44.301-35.913-80.213-80.213-80.213s-80.213 35.913-80.213 80.213c0 44.301 35.913 80.213 80.213 80.213s80.213-35.913 80.213-80.213z" />
<glyph unicode="&#xe91a;" glyph-name="record" d="M624.64 584.533v252.587h-380.245c-54.272 0-101.035-52.907-101.035-107.179v-582.656c0-54.272 46.763-88.405 101.035-88.405h504.832c54.272 0 107.52 34.133 107.52 88.405v437.248h-232.107zM247.467 584.533h251.904c14.336 0 26.283-7.851 26.283-22.187s-11.605-22.187-26.283-22.187h-251.904c-14.336 0-26.283 7.851-26.283 22.187s11.605 22.187 26.283 22.187zM247.467 417.28h299.349c14.336 0 26.283-8.533 26.283-20.48s-11.605-20.48-26.283-20.48h-299.349c-14.336 0-26.283 8.533-26.283 20.48s11.605 20.48 26.283 20.48zM635.904 229.547h-388.437c-14.336 0-26.283 6.144-26.283 20.48s11.605 20.48 26.283 20.48h388.437c14.336 0 26.283-6.144 26.283-20.48s-11.947-20.48-26.283-20.48zM869.376 602.624h-162.816c-34.816 0-63.147 28.331-63.147 63.147v162.475l225.963-225.621z" />
<glyph unicode="&#xe91b;" glyph-name="records" d="M522.581 853.163l-294.912-177.152 296.619-178.176 294.912 177.152-296.619 178.176zM199.339 270.165l295.595-177.835v356.693l-295.595 177.835v-356.693zM549.888 446.635v-354.304l295.936 177.835v354.304l-295.936-177.835z" />
<glyph unicode="&#xe91c;" glyph-name="rules" d="M570.368 571.563h-277.163c-2.731 0-5.12 2.389-5.12 5.12v42.325c0 2.731 2.389 5.12 5.12 5.12h277.163c2.731 0 5.12-2.389 5.12-5.12v-42.325c0-2.731-2.048-5.12-5.12-5.12zM570.368 435.371h-277.163c-2.731 0-5.12 2.389-5.12 5.12v42.325c0 2.731 2.389 5.12 5.12 5.12h277.163c2.731 0 5.12-2.389 5.12-5.12v-42.325c0-2.731-2.048-5.12-5.12-5.12zM416.427 140.8c-0.341 0-0.341 0-0.683 0-4.437 0-8.192 0.341-10.581 4.096l-88.064 144.043-79.189-128.341c-3.755-6.144-11.947-8.533-18.091-4.437-6.144 3.755-8.192 11.605-4.096 18.091l90.453 148.821c2.389 3.755 6.485 9.216 11.264 9.216 0 0 0 0 0 0 4.437 0 8.875-5.461 11.264-9.216l89.088-148.48 102.741 135.509c4.437 5.803 12.629 6.485 18.432 2.048s6.827-12.629 2.731-18.432l-114.347-149.504c-2.731-3.755-6.827-3.413-10.923-3.413zM754.347 246.613v-144.384c0-16.043-7.168-33.109-22.528-33.109h-558.421c-15.36 0-30.037 17.067-30.037 33.109v646.144c0 16.043 14.677 23.893 30.037 23.893h558.080c15.36 0 22.528-7.851 22.528-23.893v-221.867h54.613v221.867c0 45.056-33.792 75.093-77.141 75.093h-558.080c-43.349 0-84.651-30.037-84.651-75.093v-646.144c0-45.056 41.301-84.309 84.651-84.309h558.080c43.349 0 77.141 39.595 77.141 84.309v144.384h-54.272zM654.677 235.691l-68.267-31.061 31.061 68.267 306.176 306.176 37.205-37.205z" />
<glyph unicode="&#xe91d;" glyph-name="saletea" d="M824.32 622.080h-649.216l-67.243-176.469c0-52.907 43.691-96.597 97.621-96.597s98.645 42.667 98.645 96.597c0-52.907 43.691-96.597 97.621-96.597s98.645 42.667 98.645 96.597c0-52.907 43.691-96.597 97.621-96.597s97.621 42.667 97.621 96.597c0-52.907 43.691-96.597 98.987-96.597 53.931 0 98.987 42.667 98.987 96.597l-69.291 176.469zM792.917 623.104v0zM220.16 652.117h561.493c19.115 0 33.792 14.677 33.792 33.792s-14.677 33.792-33.792 33.792h-561.493c-19.115 0-33.792-14.677-33.792-33.792 0-19.456 14.677-33.792 33.792-33.792v0zM795.989 278.016c-44.715 0-83.285 27.307-98.645 65.536-15.36-38.229-53.589-65.536-97.621-65.536-44.373 0-82.261 27.307-97.621 65.536-15.701-38.229-53.931-65.536-98.645-65.536-44.373 0-82.261 27.307-97.621 65.536-15.701-38.229-53.931-65.536-98.645-65.536-10.581 0-20.821 1.707-30.379 4.437v-217.429c0-20.139 22.528-45.056 42.667-45.056h564.907c20.139 0 42.667 24.576 42.667 45.056v217.429c-10.24-3.072-20.48-4.437-31.061-4.437v0zM793.259 623.104v0zM698.027 892.757c-19.456-64.512-33.792-145.749 16.725-179.2 61.781 25.259 89.088 89.771-16.725 179.2zM727.723 747.008c-16.384 17.408-21.163 81.237-18.432 101.035 0 0 27.989-44.715 18.432-101.035z" />
<glyph unicode="&#xe91e;" glyph-name="setter" d="M827.733 201.216c-4.096 1.024-11.947 2.731-19.115 5.461-34.816 12.288-71.68-13.653-70.656-50.176 0-6.485 1.707-13.312 4.096-19.456 9.899-27.307 1.024-53.248-24.576-67.584-29.355-16.384-60.416-29.355-92.843-38.571-27.648-7.851-52.907 4.437-64.853 31.061-13.312 29.696-47.104 41.301-74.752 25.259-10.24-6.144-18.091-15.36-22.869-26.283-9.557-21.845-30.379-34.816-53.589-32.085-11.264 1.365-22.187 5.461-33.109 8.875-24.235 8.192-47.787 18.432-69.973 31.061-25.941 14.677-35.157 40.619-24.576 68.267 8.192 21.504 4.437 40.96-11.947 57.344-16.043 15.701-35.499 19.115-56.32 11.264-28.331-10.581-53.931-1.365-68.608 24.917-16.384 29.013-29.013 59.733-37.888 91.819-8.533 26.283 4.779 54.272 30.379 64.853 16.384 7.168 27.648 19.456 31.744 36.864 6.144 24.917-6.827 50.517-30.72 60.075-16.043 7.168-26.965 18.432-31.744 35.157-2.731 9.216-2.731 18.773 0 27.989 8.875 32.768 22.187 64.512 38.912 94.549 14.336 25.6 40.619 34.816 67.925 24.576 32.427-12.288 65.877 6.144 72.021 40.277 1.707 9.557 0.341 19.456-3.072 28.331-10.581 27.648-1.365 53.589 24.576 68.267 29.355 16.384 60.757 29.355 93.184 38.571 25.941 7.509 52.907-5.803 63.147-30.379 7.851-18.091 21.163-29.355 40.619-32.427 24.917-3.755 46.763 8.192 56.661 31.403 7.509 17.067 19.797 28.672 37.888 32.085 8.192 1.365 17.749 1.365 25.6-0.683 32.768-8.533 64.512-21.504 93.867-38.571 25.259-14.336 34.816-40.619 24.235-67.584-13.312-34.133 7.851-68.949 44.032-72.363 7.509-0.683 16.043 0.683 23.211 3.413 29.355 10.581 54.613 1.707 69.973-25.6 15.701-28.331 27.989-58.027 36.864-89.429 8.192-29.013-3.072-54.272-30.72-66.56-33.451-15.019-43.008-57.003-18.432-83.285 5.12-5.461 11.947-10.24 18.773-13.312 26.624-12.629 38.571-37.547 30.379-66.219-9.216-32.427-22.187-63.829-38.912-93.184-9.216-18.773-24.917-27.307-48.811-27.989v0zM866.304 533.675c-7.851 28.672-19.115 55.637-33.451 81.237-1.707 3.413-3.755 1.707-5.803 1.024-19.797-7.168-39.936-8.875-60.416-3.755-29.355 6.827-54.272 25.941-68.608 52.224-14.336 26.624-16.384 58.027-6.144 86.016 1.365 4.096 0.683 6.144-3.072 7.851-15.701 7.168-31.061 14.677-47.104 21.504-10.581 4.437-21.504 7.168-32.085 10.923-20.139-41.643-51.883-65.536-97.963-65.536s-78.165 23.893-97.963 65.195c-29.355-7.851-57.344-19.797-83.627-34.816 15.019-43.349 9.557-82.944-23.211-115.371s-72.021-38.229-115.371-23.211c-15.019-26.624-26.624-54.272-34.475-83.627 40.96-19.797 64.853-51.2 65.195-97.28 0.341-46.421-23.552-78.507-65.195-98.645 8.192-29.355 19.797-57.344 34.816-83.627 41.643 14.677 80.213 9.899 112.64-20.48 34.816-32.768 41.301-73.045 25.941-118.101 26.624-15.019 54.272-26.624 83.627-34.475 20.139 41.643 51.883 65.195 97.963 65.195 46.421 0 78.165-24.235 97.963-65.195 29.355 8.192 57.344 19.797 83.627 34.816-15.019 43.349-9.557 82.603 22.869 115.371 32.768 32.768 72.021 38.229 115.712 23.211 15.019 26.283 26.624 54.272 34.475 83.627-41.643 20.139-65.536 52.565-65.195 98.987 0 45.739 23.893 77.141 64.853 96.939v0zM511.659 620.032c23.211-0.341 45.397-4.779 66.901-13.312 14.336-5.461 21.163-20.139 16.043-34.133s-20.139-20.821-34.816-15.019c-32.427 12.971-68.608 12.288-100.693-1.707s-57.003-39.936-69.973-72.363c-31.403-79.189 20.821-167.936 104.789-178.517 35.499-4.779 71.339 5.461 99.328 27.648s45.739 54.955 48.811 90.795c1.707 20.48-1.365 41.301-8.875 60.416-2.731 6.485-2.731 13.653-0.341 19.797 2.731 6.485 7.509 11.605 13.995 14.336 6.485 3.072 13.995 3.072 20.821 0.341 6.485-2.731 11.947-8.192 14.336-15.019 11.605-29.013 16.384-59.051 11.605-89.771-10.923-75.435-52.565-127.317-124.587-152.576-107.52-37.205-223.232 34.475-239.957 147.115-14.677 101.035 54.955 194.901 155.307 209.237 9.557 1.707 18.432 2.048 27.307 2.731v0z" />
<glyph unicode="&#xe91f;" glyph-name="share" d="M696.661 275.627c-36.864 0-69.973-16.384-92.16-42.325l-155.307 117.077c11.947 21.845 18.773 47.104 18.773 74.069 0 43.691-18.091 82.944-47.104 111.275l177.152 115.371c22.187-30.379 58.027-50.517 98.645-50.517 67.243 0 121.856 54.613 121.856 121.856s-54.613 121.856-121.856 121.856c-67.243 0-121.856-54.613-121.856-121.856 0-9.216 1.024-18.091 3.072-26.624v0l-200.021-130.389c-19.797 9.216-41.984 14.336-65.195 14.336-85.675 0-155.648-69.632-155.648-155.648 0-85.675 69.973-155.648 155.648-155.648 41.643 0 79.189 16.384 107.179 43.008l160.768-121.515c-3.755-11.605-5.461-23.893-5.461-36.523 0-67.243 54.613-121.856 121.856-121.856s121.856 54.613 121.856 121.856-55.296 122.197-122.197 122.197zM696.661 795.477c40.277 0 73.045-32.768 73.045-73.045s-32.768-73.045-73.045-73.045c-40.277 0-73.045 32.768-73.045 73.045-0.341 40.277 32.427 73.045 73.045 73.045zM311.979 317.611c-59.051 0-106.837 47.787-106.837 106.837s47.787 106.837 106.837 106.837c59.051 0 106.837-47.787 106.837-106.837s-47.787-106.837-106.837-106.837zM696.661 80.725c-40.277 0-73.045 32.768-73.045 73.045s32.768 73.045 73.045 73.045c40.277 0 73.045-32.768 73.045-73.045s-32.768-73.045-73.045-73.045z" />
<glyph unicode="&#xe920;" glyph-name="signature" d="M876.203 693.76c0 0 30.72 23.893-1.024 55.296l-93.867 98.304c0 0-27.989 38.229-60.757 5.461l-62.464-67.243 157.696-153.6 60.416 61.781zM779.947 590.677l-166.912 157.696-378.88-381.269 171.008-146.773 374.784 370.347zM213.675 121.003l-63.829 59.051-16.043-70.656v-50.517h755.371v50.517h-753.664l78.165 11.605zM356.011 179.029l-168.277 140.971-21.504-94.549 97.621-82.603 92.16 36.181z" />
<glyph unicode="&#xe921;" glyph-name="store-manage" d="M866.645 729.259h-721.579l-74.752-195.925c0-58.709 48.811-107.179 108.544-107.179 60.075 0 109.909 47.445 109.909 107.179 0-58.709 48.811-107.179 108.544-107.179s109.909 47.445 109.909 107.179c0-58.709 48.811-107.179 108.544-107.179s108.544 47.445 108.544 107.179c0-58.709 48.811-107.179 109.909-107.179 60.075 0 109.909 47.445 109.909 107.179l-77.483 195.925zM831.488 730.624v0zM194.901 762.368h624.299c21.163 0 37.547 16.384 37.547 37.547s-16.384 37.547-37.547 37.547h-624.299c-21.163 0-37.547-16.384-37.547-37.547 0.341-21.163 16.384-37.547 37.547-37.547v0zM834.901 346.624c-49.835 0-92.501 30.379-109.909 73.045-17.067-42.667-59.392-73.045-108.544-73.045s-91.477 30.379-108.544 73.045c-17.408-42.667-60.075-73.045-109.909-73.045-49.152 0-91.477 30.379-108.544 73.045-17.408-42.667-60.075-73.045-109.909-73.045-11.605 0-22.869 1.707-33.792 4.779v-241.323c0-22.528 24.917-49.835 47.445-49.835h627.712c22.528 0 47.445 27.307 47.445 49.835v241.664c-10.24-3.413-21.504-5.12-33.451-5.12v0zM831.829 730.624v0z" />
<glyph unicode="&#xe922;" glyph-name="stores" d="M921.6 573.611c0 0.341 0 1.024-0.341 1.365-0.341 1.707-1.024 3.413-1.707 5.12l-72.363 180.224c-12.629 37.205-48.469 60.416-90.795 60.416h-507.563c-42.667 0-75.776-22.528-87.723-58.709l-77.824-183.979c-0.341-1.024-0.683-2.731-1.024-4.437-5.803-17.408-8.533-35.157-8.533-52.907 0-62.805 34.475-120.149 90.112-149.845 0 0 0 0 0 0s0 0 0 0 0 0 0 0c22.869-12.288 49.493-18.432 79.872-18.432 50.517 0 97.621 22.528 129.707 60.416 31.744-37.888 78.507-59.733 129.024-60.075 50.176 0.341 96.597 22.528 128.341 60.416 32.085-38.229 78.848-60.416 130.048-60.416 30.72 0 58.027 6.485 81.237 19.115 54.613 29.696 88.405 87.040 88.405 149.163-0.341 18.432-3.413 36.181-8.875 52.565v0zM812.032 426.496c-13.995-7.509-31.403-11.605-51.883-11.605-37.547 0-72.021 19.115-91.819 51.541-1.365 3.072-3.755 8.192-8.192 12.971-5.12 5.803-14.336 12.629-29.696 12.629-12.288 0-23.552-5.12-29.696-12.629-4.096-4.779-6.485-9.216-8.192-12.629-19.797-32.085-53.589-51.2-90.453-51.541-37.205 0.341-71.339 19.456-91.136 51.541-1.365 2.731-3.755 7.509-7.168 11.605-14.677 17.408-47.104 16.384-59.733 1.365-4.779-5.12-7.168-10.24-8.533-13.653-19.797-32.085-54.272-51.2-91.819-51.2-19.797 0-36.864 3.755-50.859 10.923v0c-35.157 18.773-57.344 55.296-57.344 95.232 0 11.947 2.048 23.893 5.803 35.499 0.341 0.683 0.683 1.707 0.683 2.731l76.459 181.248c1.707 4.779 6.485 18.773 30.037 18.773h508.245c9.899-0.683 26.624-2.389 32.768-19.797l71.68-178.517c0.341-1.365 0.683-2.389 1.024-3.413 4.096-11.605 5.803-23.552 5.803-35.157 0.341-40.619-21.163-76.8-55.979-95.915v0zM835.243 327.509c-17.067 0-30.72-13.653-30.72-30.72v-168.619c0-9.557-7.851-17.408-17.408-17.408l-580.949-0.341c-9.557 0-17.408 7.851-17.408 17.067l-0.341 165.547c0 17.067-13.995 30.72-30.72 30.72v0c-17.067 0-30.72-13.995-30.72-31.061l0.341-165.547c0-43.691 35.499-78.848 79.189-78.848l580.949 0.341c43.691 0 78.848 35.499 78.848 79.189v168.277c-0.341 17.408-14.336 31.403-31.061 31.403v0zM743.424 543.573h-493.909c-17.067 0-30.72 13.995-30.72 30.72 0 17.067 13.995 30.72 30.72 30.72h493.909c17.067 0 30.72-13.995 30.72-30.72s-13.653-30.72-30.72-30.72v0z" />
<glyph unicode="&#xe923;" glyph-name="time" d="M499.371 835.755c-220.843 0-400.043-179.2-400.043-400.043s179.2-400.043 400.043-400.043c220.843 0 400.043 179.2 400.043 400.043-0.341 220.843-179.2 400.043-400.043 400.043zM744.789 359.253h-253.952c-25.941 0-46.763 24.917-46.763 50.859 0 1.024-8.533 3.755-8.533 4.779s-8.875 3.755-8.875 4.779v253.611c0 25.941 18.432 46.763 44.373 46.763s44.373-21.163 44.373-46.763v-225.28h229.376c25.941 0 46.763-18.432 46.763-44.373 0.341-25.941-20.821-44.373-46.763-44.373z" />
<glyph unicode="&#xe924;" glyph-name="trash" d="M857.771 645.632h-682.325c-2.048 0-3.413 1.365-3.413 3.413v36.523c0 2.048 1.365 3.413 3.413 3.413h682.325c2.048 0 3.413-1.365 3.413-3.413v-36.523c0-2.048-1.365-3.413-3.413-3.413zM348.16 683.52v67.584c0 40.96 19.115 86.016 51.2 86.016h231.424c31.744 0 65.877-45.056 65.877-86.016v-67.584h44.373v67.584c0 71.68-54.272 130.389-110.251 130.389h-231.424c-55.637 0-95.573-58.709-95.573-130.389v-67.584h44.373zM448.171 223.403h-36.523c-2.048 0-3.413 1.365-3.413 3.413v262.485c0 2.048 1.365 3.413 3.413 3.413h36.523c2.048 0 3.413-1.365 3.413-3.413v-262.485c0-2.048-1.707-3.413-3.413-3.413zM621.568 223.403h-36.523c-2.048 0-3.413 1.365-3.413 3.413v262.485c0 2.048 1.365 3.413 3.413 3.413h36.523c2.048 0 3.413-1.365 3.413-3.413v-262.485c0-2.048-1.365-3.413-3.413-3.413zM807.595 588.288c-14.677 0-25.6-12.288-25.6-27.648 0-2.389 0.683-4.096 1.024-6.485-0.683-1.365-1.365-3.072-1.365-4.779v-398.336c0-37.888-18.091-95.915-55.296-95.915h-389.461c-37.205 0.341-74.069 58.368-74.069 96.256v398.336c0 7.168-4.096 31.403-18.091 31.403s-25.259-3.413-26.624-23.893h-0.341c-0.341 0-0.341 2.389-0.341 1.024 0-0.341 0 1.365 0 1.024 0-1.024 0.341-1.024 0.341-2.048 0.341-2.389 0.683-4.437 0.683-7.509v-398.336c0-68.267 51.883-136.875 118.443-136.875h389.461c66.901 0 99.669 68.608 99.669 136.875v398.336c0 7.168-4.779 38.571-18.432 38.571z" />
</font>
</defs>
</svg>
