<?xml version="1.0" encoding="utf-8"?>
<!-- Generator: Adobe Illustrator 19.0.0, SVG Export Plug-In . SVG Version: 6.00 Build 0)  -->
<svg version="1.1" id="图层_1" xmlns="http://www.w3.org/2000/svg" xmlns:xlink="http://www.w3.org/1999/xlink" x="0px" y="0px"
	 viewBox="0 0 200 200" style="enable-background:new 0 0 200 200;" xml:space="preserve">
<style type="text/css">
	.st0{fill:#B8B8B8;}
</style>
<g id="XMLID_1_">
	<path id="XMLID_9_" class="st0" d="M102.5,19.7c-44.6,0-80.7,36.1-80.7,80.7c0,44.6,36.1,80.7,80.7,80.7
		c44.6,0,80.7-36.1,80.7-80.7C183.2,55.8,147.1,19.7,102.5,19.7z M136.4,125.3c2.6,2.6,2.6,6.9,0,9.6c-2.6,2.6-6.9,2.6-9.6,0
		l-24.2-24.2l-25,25c-2.6,2.6-6.9,2.6-9.6,0c-2.6-2.6-2.6-6.9,0-9.6l25-25L67.4,75.4c-2.6-2.6-2.6-6.9,0-9.6h0
		c2.6-2.6,6.9-2.6,9.6,0l25.6,25.6l24.9-24.9c2.6-2.6,6.9-2.6,9.6,0h0c2.6,2.6,2.6,6.9,0,9.6l-24.9,24.9L136.4,125.3z"/>
</g>
</svg>
