<?xml version="1.0" encoding="utf-8"?>
<!-- Generator: Adobe Illustrator 19.0.0, SVG Export Plug-In . SVG Version: 6.00 Build 0)  -->
<svg version="1.1" id="图层_1" xmlns="http://www.w3.org/2000/svg" xmlns:xlink="http://www.w3.org/1999/xlink" x="0px" y="0px"
	 viewBox="0 0 200 200" style="enable-background:new 0 0 200 200;" xml:space="preserve">
<style type="text/css">
	.st0{fill:#B8B8B8;}
</style>
<path id="XMLID_138_" class="st0" d="M148,37H53.2C42.6,37,33,48.8,33,59.4V135c0,10.6,9.6,17,20.2,17h11.4c0,0-2.1,9.2-10.6,18.8
	C70.4,173,92.9,152,92.9,152H148c10.6,0,19-6.4,19-17V59.4C167,48.8,158.6,37,148,37z M64.7,107.7c-5.8,0-10.6-4.7-10.6-10.6
	c0-5.8,4.7-10.6,10.6-10.6s10.6,4.7,10.6,10.6C75.2,103,70.5,107.7,64.7,107.7z M99.9,107.7c-5.8,0-10.6-4.7-10.6-10.6
	c0-5.8,4.7-10.6,10.6-10.6c5.8,0,10.6,4.7,10.6,10.6C110.5,103,105.7,107.7,99.9,107.7z M139,107.7c-5.8,0-10.6-4.7-10.6-10.6
	c0-5.8,4.7-10.6,10.6-10.6s10.6,4.7,10.6,10.6C149.6,103,144.9,107.7,139,107.7z"/>
</svg>
