<?xml version="1.0" encoding="utf-8"?>
<!-- Generator: Adobe Illustrator 19.0.0, SVG Export Plug-In . SVG Version: 6.00 Build 0)  -->
<svg version="1.1" id="图层_1" xmlns="http://www.w3.org/2000/svg" xmlns:xlink="http://www.w3.org/1999/xlink" x="0px" y="0px"
	 viewBox="0 0 300 300" style="enable-background:new 0 0 300 300;" xml:space="preserve">
<style type="text/css">
	.st0{fill:#333333;}
</style>
<g id="XMLID_381_">
	<path id="XMLID_393_" class="st0" d="M241,200v28.3c0,8.9-6.8,16.7-15.7,16.7H55.7c-8.9,0-15.7-7.9-15.7-16.7V73.6
		C40,64.7,46.8,60,55.7,60h169.6c8.9,0,15.7,4.7,15.7,13.6V105h13V73.6c0-16.4-12.3-28.6-28.7-28.6H55.7C39.3,45,27,57.1,27,73.6
		v154.7c0,16.4,12.3,31.7,28.7,31.7h169.6c16.4,0,28.7-15.3,28.7-31.7V200H241z"/>
	<path id="XMLID_382_" class="st0" d="M256.2,196.6h-73.5c-24.7,0-44.8-20.1-44.8-44.8s20.1-44.8,44.8-44.8h73.5
		c11.3,0,20.5,9.2,20.5,20.5v48.6C276.7,187.4,267.5,196.6,256.2,196.6z M182.7,120.6c-17.2,0-31.1,14-31.1,31.1s14,31.1,31.1,31.1
		h73.5c3.8,0,6.8-3.1,6.8-6.8v-48.6c0-3.8-3.1-6.8-6.8-6.8H182.7z"/>
	<circle id="XMLID_378_" class="st0" cx="203.2" cy="151" r="23.5"/>
</g>
</svg>
