<?xml version="1.0" encoding="utf-8"?>
<!-- Generator: Adobe Illustrator 19.0.0, SVG Export Plug-In . SVG Version: 6.00 Build 0)  -->
<svg version="1.1" id="图层_1" xmlns="http://www.w3.org/2000/svg" xmlns:xlink="http://www.w3.org/1999/xlink" x="0px" y="0px"
	 viewBox="0 0 300 300" style="enable-background:new 0 0 300 300;" xml:space="preserve">
<style type="text/css">
	.st0{display:none;}
	.st1{display:inline;fill:#333333;}
	.st2{fill:#333333;}
</style>
<g id="XMLID_381_" class="st0">
	<path id="XMLID_393_" class="st1" d="M241,200v28.3c0,8.9-6.8,16.7-15.7,16.7H55.7c-8.9,0-15.7-7.9-15.7-16.7V73.6
		C40,64.7,46.8,60,55.7,60h169.6c8.9,0,15.7,4.7,15.7,13.6V105h13V73.6c0-16.4-12.3-28.6-28.7-28.6H55.7C39.3,45,27,57.1,27,73.6
		v154.7c0,16.4,12.3,31.7,28.7,31.7h169.6c16.4,0,28.7-15.3,28.7-31.7V200H241z"/>
	<path id="XMLID_382_" class="st1" d="M256.2,196.6h-73.5c-24.7,0-44.8-20.1-44.8-44.8s20.1-44.8,44.8-44.8h73.5
		c11.3,0,20.5,9.2,20.5,20.5v48.6C276.7,187.4,267.5,196.6,256.2,196.6z M182.7,120.6c-17.2,0-31.1,14-31.1,31.1s14,31.1,31.1,31.1
		h73.5c3.8,0,6.8-3.1,6.8-6.8v-48.6c0-3.8-3.1-6.8-6.8-6.8H182.7z"/>
	<circle id="XMLID_378_" class="st1" cx="203.2" cy="151" r="23.5"/>
</g>
<g id="XMLID_364_">
	<path id="XMLID_5_" class="st2" d="M255.1,47.1H55c-15.5,0-28,12.6-28,28v156.7c0,15.5,12.6,28,28,28h200.1c15.5,0,28-12.6,28-28
		V75.1C283.2,59.7,270.6,47.1,255.1,47.1z M55,61.9h200.1c7.3,0,13.2,5.9,13.2,13.2v19H41.8v-19C41.8,67.8,47.8,61.9,55,61.9z
		 M255.1,245H55c-7.3,0-13.2-5.9-13.2-13.2V127.9h226.5v103.9C268.3,239.1,262.4,245,255.1,245z"/>
	<path id="XMLID_401_" class="st2" d="M79,203.6h-6.6c-0.5,0-0.8-0.4-0.8-0.8v-48.4c0-0.5,0.4-0.8,0.8-0.8H79c0.5,0,0.8,0.4,0.8,0.8
		v48.4C79.8,203.2,79.4,203.6,79,203.6z"/>
	<path id="XMLID_403_" class="st2" d="M104.9,217.6h-6.7c-0.4,0-0.8-0.3-0.8-0.8v-62.5c0-0.4,0.3-0.8,0.8-0.8h6.7
		c0.4,0,0.8,0.3,0.8,0.8v62.5C105.6,217.2,105.3,217.6,104.9,217.6z"/>
</g>
</svg>
