<?xml version="1.0" encoding="utf-8"?>
<!-- Generator: Adobe Illustrator 19.0.0, SVG Export Plug-In . SVG Version: 6.00 Build 0)  -->
<svg version="1.1" id="图层_1" xmlns="http://www.w3.org/2000/svg" xmlns:xlink="http://www.w3.org/1999/xlink" x="0px" y="0px"
	 viewBox="0 0 200 200" style="enable-background:new 0 0 200 200;" xml:space="preserve">
<style type="text/css">
	.st0{fill:#B8B8B8;}
</style>
<path id="XMLID_5_" class="st0" d="M181.1,80.3c2.3-2.9,1.9-7.2-1.1-9.6c-2.9-2.4-7.2-1.9-9.6,1.1c-0.2,0.3-25.7,31.5-69.6,31.5
	c-43.6,0-69.3-31.2-69.6-31.5c-2.4-2.9-6.6-3.4-9.6-1.1c-2.9,2.3-3.4,6.6-1.1,9.6c0.4,0.5,4.3,5.3,11.3,11.1l-11.9,14.5l10.5,8.6
	L43,99.5c5.1,3.3,11.1,6.6,17.9,9.4l-6.9,19l12.8,4.6l7-19.2c6.3,1.7,13.1,2.8,20.3,3.3v20.7h13.6v-20.7c7.4-0.5,14.3-1.7,20.7-3.4
	l7,19.2l12.8-4.7l-6.9-18.9c6.4-2.7,12.1-5.8,17.1-9l12.3,15.2l10.6-8.6l-11.9-14.6C176.6,85.7,180.7,80.8,181.1,80.3L181.1,80.3z
	 M181.1,80.3"/>
</svg>
