<?xml version="1.0" encoding="utf-8"?>
<!-- Generator: Adobe Illustrator 19.0.0, SVG Export Plug-In . SVG Version: 6.00 Build 0)  -->
<svg version="1.1" id="图层_1" xmlns="http://www.w3.org/2000/svg" xmlns:xlink="http://www.w3.org/1999/xlink" x="0px" y="0px"
	 viewBox="0 0 300 300" style="enable-background:new 0 0 300 300;" xml:space="preserve">
<style type="text/css">
	.st0{display:none;}
	.st1{display:inline;fill:#333333;}
	.st2{display:inline;}
	.st3{display:inline;clip-path:url(#XMLID_14_);fill:#333333;}
	.st4{display:none;fill:#231815;}
	.st5{display:none;fill:#EF8BAF;}
	.st6{display:inline;fill:#80A3D5;}
	.st7{display:inline;fill:none;}
	.st8{fill:#93D4EE;}
</style>
<g id="XMLID_381_" class="st0">
	<path id="XMLID_393_" class="st1" d="M241,200v28.3c0,8.9-6.8,16.7-15.7,16.7H55.7c-8.9,0-15.7-7.9-15.7-16.7V73.6
		C40,64.7,46.8,60,55.7,60h169.6c8.9,0,15.7,4.7,15.7,13.6V105h13V73.6c0-16.4-12.3-28.6-28.7-28.6H55.7C39.3,45,27,57.1,27,73.6
		v154.7c0,16.4,12.3,31.7,28.7,31.7h169.6c16.4,0,28.7-15.3,28.7-31.7V200H241z"/>
	<path id="XMLID_382_" class="st1" d="M256.2,196.6h-73.5c-24.7,0-44.8-20.1-44.8-44.8s20.1-44.8,44.8-44.8h73.5
		c11.3,0,20.5,9.2,20.5,20.5v48.6C276.7,187.4,267.5,196.6,256.2,196.6z M182.7,120.6c-17.2,0-31.1,14-31.1,31.1s14,31.1,31.1,31.1
		h73.5c3.8,0,6.8-3.1,6.8-6.8v-48.6c0-3.8-3.1-6.8-6.8-6.8H182.7z"/>
	<circle id="XMLID_378_" class="st1" cx="203.2" cy="151" r="23.5"/>
</g>
<g id="XMLID_364_" class="st0">
	<path id="XMLID_5_" class="st1" d="M255.1,47.1H55c-15.5,0-28,12.6-28,28v156.7c0,15.5,12.6,28,28,28h200.1c15.5,0,28-12.6,28-28
		V75.1C283.2,59.7,270.6,47.1,255.1,47.1z M55,61.9h200.1c7.3,0,13.2,5.9,13.2,13.2v19H41.8v-19C41.8,67.8,47.8,61.9,55,61.9z
		 M255.1,245H55c-7.3,0-13.2-5.9-13.2-13.2V127.9h226.5v103.9C268.3,239.1,262.4,245,255.1,245z"/>
	<path id="XMLID_401_" class="st1" d="M79,203.6h-6.6c-0.5,0-0.8-0.4-0.8-0.8v-48.4c0-0.5,0.4-0.8,0.8-0.8H79c0.5,0,0.8,0.4,0.8,0.8
		v48.4C79.8,203.2,79.4,203.6,79,203.6z"/>
	<path id="XMLID_403_" class="st1" d="M104.9,217.6h-6.7c-0.4,0-0.8-0.3-0.8-0.8v-62.5c0-0.4,0.3-0.8,0.8-0.8h6.7
		c0.4,0,0.8,0.3,0.8,0.8v62.5C105.6,217.2,105.3,217.6,104.9,217.6z"/>
</g>
<g id="XMLID_1_" class="st0">
	<path id="XMLID_3_" class="st1" d="M281.7,137h-16.5c1.2,11,2,14.4,2,21.5c0,63.2-51.5,114.8-114.7,114.8
		c-47.9,0-89-28.3-106.2-71.3H30.6l-1.7-0.4l-12.1,45.2l15.7,4.2l6.9-25.8c22.7,39.8,64.9,64.8,113.1,64.8
		c72.2,0,130.9-59.4,130.9-131.6C283.4,151.3,282.8,148,281.7,137z"/>
	<path id="XMLID_16_" class="st1" d="M152.5,47.1C188.1,47.1,220,61,241,88h18.2l2.1,0.6l12.1-45.2l-15.7-4.2L249,71.9
		c-23.9-26.7-58.4-40.9-96.5-40.9C83.3,30.9,26.5,82,21.9,154h16.3C42.8,93,92.2,47.1,152.5,47.1z"/>
	<polygon id="XMLID_17_" class="st1" points="196.2,86.4 155.9,156.2 115.6,86.4 101.5,94.5 138.9,159.3 111.9,159.3 111.9,175.5 
		147,175.5 147,185.2 111.9,185.2 111.9,201.4 147,201.4 147,226.3 163.2,226.3 163.2,201.4 198.3,201.4 198.3,185.2 163.2,185.2 
		163.2,175.5 198.3,175.5 198.3,159.3 172.8,159.3 210.2,94.5 	"/>
</g>
<g id="XMLID_6_" class="st0">
	<rect id="XMLID_7_" x="113.8" y="117.3" class="st1" width="74.1" height="17.3"/>
	<rect id="XMLID_15_" x="113.8" y="174.3" class="st1" width="74.1" height="17.3"/>
	<path id="XMLID_20_" class="st1" d="M248.8,39.9H50.4c-18.9,0-34.9,17.4-34.9,36.3v10.2v4.5v10.8c2-0.3,4.7-0.5,7-0.5
		c29.3,0,53.2,23.8,53.2,53.1s-24,53.1-53.3,53.1c-2.3,0-4.9-0.2-6.9-0.5v9.1v6.2v10c0,18.9,16,34.7,34.9,34.7h198.4
		c18.9,0,35.7-15.8,35.7-34.7v-10.3v-6v-9.3c-3,0.4-5.8,0.7-8.7,0.7c-29.3,0-53.2-23.8-53.2-53.1s24-53.1,53.3-53.1
		c2.9,0,5.6,0.3,8.6,0.7v-11v-4.3V76.2C284.5,57.2,267.7,39.9,248.8,39.9z M207.4,154.2c0,35.1,26.9,64.1,61.1,67.8v10.1
		c0,10.6-9.2,19.7-19.7,19.7H50.4c-10.6,0-18.9-9.2-18.9-19.7v-10.3c33.4-4.4,59.2-33,59.2-67.6c0-34.6-25.9-63.2-59.2-67.6V76.2
		c0-10.6,8.3-21.3,18.9-21.3h198.4c10.6,0,19.7,10.7,19.7,21.3v10.2C234.3,90,207.4,119.1,207.4,154.2z"/>
</g>
<g id="XMLID_8_" class="st0">
	<path id="XMLID_26_" class="st1" d="M266.6,251.9v-98c0-14.8-13.3-26.3-28.1-26.3H197v14.9h41.5c6.6,0,13.2,4.8,13.2,11.4v98H197
		h-9.1V69.5c0-16.5-13-30-29-30H54.5c-16,0-29,13.5-29,30v182.4H6.8v14.9H197h69.6h26.6v-14.9H266.6z M40.4,69.6
		c0-8,6.3-14.6,14.1-14.6h104.4c7.8,0,14.1,6.5,14.1,14.5v181.9H40.4V69.6z"/>
	<rect id="XMLID_27_" x="74.3" y="125.5" class="st1" width="70.7" height="14.9"/>
	<rect id="XMLID_28_" x="74.3" y="163.7" class="st1" width="70.7" height="14.9"/>
	<rect id="XMLID_29_" x="74.3" y="201.9" class="st1" width="70.7" height="14.9"/>
</g>
<g id="XMLID_448_" class="st0">
	<defs>
		<rect id="XMLID_424_" x="21.6" y="40.6" width="250.8" height="226.7"/>
	</defs>
	<clipPath id="XMLID_14_" class="st2">
		<use xlink:href="#XMLID_424_"  style="overflow:visible;"/>
	</clipPath>
	<path id="XMLID_450_" class="st3" d="M270,113.2c0-0.1,0-0.3-0.1-0.4c-0.1-0.5-0.3-1-0.5-1.5l-21.2-52.8
		c-3.7-10.9-14.2-17.7-26.6-17.7H72.9c-12.5,0-22.2,6.6-25.7,17.2l-22.8,53.9c-0.1,0.3-0.2,0.8-0.3,1.3c-1.7,5.1-2.5,10.3-2.5,15.5
		c0,18.4,10.1,35.2,26.4,43.9c0,0,0,0,0,0c0,0,0,0,0,0c0,0,0,0,0,0c6.7,3.6,14.5,5.4,23.4,5.4c14.8,0,28.6-6.6,38-17.7
		c9.3,11.1,23,17.5,37.8,17.6c14.7-0.1,28.3-6.6,37.6-17.7c9.4,11.2,23.1,17.7,38.1,17.7c9,0,17-1.9,23.8-5.6
		c16-8.7,25.9-25.5,25.9-43.7C272.5,123.2,271.6,118,270,113.2L270,113.2z M237.9,156.3c-4.1,2.2-9.2,3.4-15.2,3.4
		c-11,0-21.1-5.6-26.9-15.1c-0.4-0.9-1.1-2.4-2.4-3.8c-1.5-1.7-4.2-3.7-8.7-3.7c-3.6,0-6.9,1.5-8.7,3.7c-1.2,1.4-1.9,2.7-2.4,3.7
		c-5.8,9.4-15.7,15-26.5,15.1c-10.9-0.1-20.9-5.7-26.7-15.1c-0.4-0.8-1.1-2.2-2.1-3.4c-4.3-5.1-13.8-4.8-17.5-0.4
		c-1.4,1.5-2.1,3-2.5,4c-5.8,9.4-15.9,15-26.9,15c-5.8,0-10.8-1.1-14.9-3.2h0c-10.3-5.5-16.8-16.2-16.8-27.9c0-3.5,0.6-7,1.7-10.4
		c0.1-0.2,0.2-0.5,0.2-0.8l22.4-53.1c0.5-1.4,1.9-5.5,8.8-5.5h148.9c2.9,0.2,7.8,0.7,9.6,5.8l21,52.3c0.1,0.4,0.2,0.7,0.3,1
		c1.2,3.4,1.7,6.9,1.7,10.3C254.4,140.1,248.1,150.7,237.9,156.3L237.9,156.3z M244.7,185.3c-5,0-9,4-9,9l0,49.4
		c0,2.8-2.3,5.1-5.1,5.1l-170.2,0.1c-2.8,0-5.1-2.3-5.1-5l-0.1-48.5c0-5-4.1-9-9-9h0c-5,0-9,4.1-9,9.1l0.1,48.5
		c0,12.8,10.4,23.1,23.2,23.1l170.2-0.1c12.8,0,23.1-10.4,23.1-23.2l0-49.3C253.7,189.4,249.6,185.3,244.7,185.3L244.7,185.3z
		 M217.8,122H73.1c-5,0-9-4.1-9-9c0-5,4.1-9,9-9h144.7c5,0,9,4.1,9,9C226.8,117.9,222.8,122,217.8,122L217.8,122z M217.8,122"/>
</g>
<path id="XMLID_23_" class="st4" d="M204.1,200.5c-10.8,0-20.5,4.8-27,12.4l-45.5-34.3c3.5-6.4,5.5-13.8,5.5-21.7
	c0-12.8-5.3-24.3-13.8-32.6l51.9-33.8c6.5,8.9,17,14.8,28.9,14.8c19.7,0,35.7-16,35.7-35.7c0-19.7-16-35.7-35.7-35.7
	c-19.7,0-35.7,16-35.7,35.7c0,2.7,0.3,5.3,0.9,7.8l0,0l-58.6,38.2c-5.8-2.7-12.3-4.2-19.1-4.2c-25.1,0-45.6,20.4-45.6,45.6
	c0,25.1,20.5,45.6,45.6,45.6c12.2,0,23.2-4.8,31.4-12.6l47.1,35.6c-1.1,3.4-1.6,7-1.6,10.7c0,19.7,16,35.7,35.7,35.7
	c19.7,0,35.7-16,35.7-35.7S223.7,200.5,204.1,200.5z M204.1,48.2c11.8,0,21.4,9.6,21.4,21.4c0,11.8-9.6,21.4-21.4,21.4
	c-11.8,0-21.4-9.6-21.4-21.4C182.6,57.8,192.2,48.2,204.1,48.2z M91.4,188.2c-17.3,0-31.3-14-31.3-31.3s14-31.3,31.3-31.3
	c17.3,0,31.3,14,31.3,31.3S108.7,188.2,91.4,188.2z M204.1,257.6c-11.8,0-21.4-9.6-21.4-21.4s9.6-21.4,21.4-21.4
	c11.8,0,21.4,9.6,21.4,21.4S215.9,257.6,204.1,257.6z"/>
<g id="XMLID_486_" class="st0">
	<path id="XMLID_491_" class="st1" d="M150,36.1c-64.2,0-116.8,52.6-116.8,116.8c0,64.2,52.6,116.8,116.8,116.8
		c64.2,0,116.8-52.6,116.8-116.8C266.8,88.6,214.2,36.1,150,36.1 M150,255.1c-56.9,0-102.2-45.3-102.2-102.2
		C47.8,95.9,93.1,50.7,150,50.7c56.9,0,102.2,45.3,102.2,102.2C252.2,209.8,206.9,255.1,150,255.1"/>
	<path id="XMLID_487_" class="st1" d="M148.5,196.5c-4.4,0-7.3,1.5-10.2,4.4c-2.9,2.9-4.4,5.8-4.4,10.2c0,4.4,1.5,7.3,4.4,10.2
		c2.9,2.9,5.8,4.4,10.2,4.4c4.4,0,7.3-1.5,10.2-4.4c2.9-2.9,4.4-5.8,4.4-10.2c0-4.4-1.5-7.3-4.4-10.2
		C155.8,197.9,152.9,196.5,148.5,196.5L148.5,196.5z M152.9,77.3c-14.5,0-26.2,4.4-34.9,13.1c-10.2,8.7-14.5,20.3-14.5,34.9h21.8
		c0-8.7,1.5-16,5.8-20.3c4.4-5.8,10.2-8.7,20.3-8.7c7.3,0,13.1,1.5,17.4,5.8c4.4,4.4,5.8,10.2,5.8,16c0,5.8-1.5,10.2-5.8,14.5
		l-4.4,4.4c-11.6,11.6-20.3,20.3-23.3,26.2c-2.9,4.4-2.9,11.6-2.9,18.9v2.9h21.8v-2.9c0-4.4,1.5-8.7,2.9-13.1
		c1.5-4.4,4.4-7.3,8.7-10.2c10.2-8.7,16-13.1,17.4-16c5.8-5.8,7.3-14.5,7.3-24.7c0-11.6-4.4-21.8-11.6-29.1
		C176.2,80.2,166,77.3,152.9,77.3L152.9,77.3z M152.9,77.3"/>
</g>
<g id="XMLID_11_" class="st0">
	<path id="XMLID_478_" class="st1" d="M122.8,266.9c-1.8,0-3.7-0.4-5.5-1.2c-4.7-2.1-7.6-6.6-7.6-11.8l-0.4-37.6
		c0-1.4-1.1-2.5-2.5-2.5H60.8c-16.3,0-29.6-13.3-29.6-29.6V77.4c0-16.3,13.3-29.6,29.6-29.6h178.5c16.3,0,29.6,13.3,29.6,29.6v106.8
		c0,16.3-13.3,29.6-29.6,29.6h-46.1c-2.2,0-4.3,0.8-6,2.2l-56,47.7C128.8,265.8,125.8,266.9,122.8,266.9z M60.8,62.4
		c-8.3,0-15,6.7-15,15v106.8c0,8.3,6.7,15,15,15h46.1c9.3,0,17,7.6,17.1,16.9l0.4,34.3l53.5-45.6c4.3-3.7,9.8-5.7,15.4-5.7h46.1
		c8.3,0,15-6.7,15-15V77.4c0-8.3-6.7-15-15-15H60.8z"/>
	<path id="XMLID_488_" class="st1" d="M213,112.2H88.2c-0.8,0-1.5-0.7-1.5-1.5V99.1c0-0.8,0.7-1.5,1.5-1.5H213
		c0.8,0,1.5,0.7,1.5,1.5v11.6C214.5,111.5,213.8,112.2,213,112.2z"/>
	<path id="XMLID_490_" class="st1" d="M204.7,142.8h-95.5c-0.7,0-1.3-0.6-1.3-1.3v-12c0-0.7,0.6-1.3,1.3-1.3h95.5
		c0.7,0,1.3,0.6,1.3,1.3v12C206,142.2,205.4,142.8,204.7,142.8z"/>
</g>
<g id="XMLID_426_" class="st0">
	<path id="XMLID_495_" class="st1" d="M167.1,113.8H85.9c-0.8,0-1.5-0.7-1.5-1.5V99.9c0-0.8,0.7-1.5,1.5-1.5h81.2
		c0.8,0,1.5,0.7,1.5,1.5v12.4C168.6,113.1,168,113.8,167.1,113.8z"/>
	<path id="XMLID_497_" class="st1" d="M167.1,153.7H85.9c-0.8,0-1.5-0.7-1.5-1.5v-12.4c0-0.8,0.7-1.5,1.5-1.5h81.2
		c0.8,0,1.5,0.7,1.5,1.5v12.4C168.6,153,168,153.7,167.1,153.7z"/>
	<path id="XMLID_494_" class="st1" d="M122,240c-0.1,0-0.1,0-0.2,0c-1.3,0-2.4-0.1-3.1-1.2l-25.8-42.2l-23.2,37.6
		c-1.1,1.8-3.5,2.5-5.3,1.3c-1.8-1.1-2.4-3.4-1.2-5.3l26.5-43.6c0.7-1.1,1.9-2.7,3.3-2.7c0,0,0,0,0,0c1.3,0,2.6,1.6,3.3,2.7
		l26.1,43.5l30.1-39.7c1.3-1.7,3.7-1.9,5.4-0.6c1.7,1.3,2,3.7,0.8,5.4l-33.5,43.8C124.4,240.1,123.2,240,122,240z"/>
	<path id="XMLID_502_" class="st1" d="M221,209v42.3c0,4.7-2.1,9.7-6.6,9.7H50.8c-4.5,0-8.8-5-8.8-9.7V62c0-4.7,4.3-7,8.8-7h163.5
		c4.5,0,6.6,2.3,6.6,7v65h16V62c0-13.2-9.9-22-22.6-22H50.8C38.1,40,26,48.8,26,62v189.3c0,13.2,12.1,24.7,24.8,24.7h163.5
		c12.7,0,22.6-11.6,22.6-24.7V209H221z"/>
	<polygon id="XMLID_492_" class="st1" points="191.8,212.2 171.8,221.3 180.9,201.3 270.6,111.6 281.5,122.5 	"/>
</g>
<path id="XMLID_368_" class="st5" d="M204.7,43c-19.1,0-59.1,0-59.1,0s-38.8,0-59.1,0s-57.6,74.4-57.6,74.4S106,268.3,145.5,268.3
	c39.6,0,116.7-151.5,116.7-151.5S223.8,43,204.7,43z M194.8,130.9l-38.6,66.9c-2.2,3.9-6.5,5.9-10.6,5.6c-4.2,0.3-8.4-1.7-10.6-5.6
	l-38.6-66.9c-3.1-5.4-1.3-12.3,4.1-15.4c5.4-3.1,12.3-1.3,15.4,4.1l29.7,51.4l29.7-51.4c3.1-5.4,10-7.3,15.4-4.1
	C196.1,118.6,197.9,125.5,194.8,130.9z"/>
<g id="XMLID_358_" class="st0">
	<path id="XMLID_373_" class="st6" d="M253.9,67.6H42.5L20.6,125c0,17.2,14.3,31.4,31.8,31.4c17.6,0,32.2-13.9,32.2-31.4
		c0,17.2,14.3,31.4,31.8,31.4s32.2-13.9,32.2-31.4c0,17.2,14.3,31.4,31.8,31.4s31.8-13.9,31.8-31.4c0,17.2,14.3,31.4,32.2,31.4
		c17.6,0,32.2-13.9,32.2-31.4L253.9,67.6z M243.6,67.2l0.7,0.4L243.6,67.2z M57.1,57.9H240c6.2,0,11-4.8,11-11c0-6.2-4.8-11-11-11
		H57.1c-6.2,0-11,4.8-11,11C46.2,53.1,50.9,57.9,57.1,57.9L57.1,57.9z M57.1,57.9"/>
	<path id="XMLID_369_" class="st6" d="M244.6,179.7c-14.6,0-27.1-8.9-32.2-21.4c-5,12.5-17.4,21.4-31.8,21.4
		c-14.4,0-26.8-8.9-31.8-21.4c-5.1,12.5-17.6,21.4-32.2,21.4c-14.4,0-26.8-8.9-31.8-21.4c-5.1,12.5-17.6,21.4-32.2,21.4
		c-3.4,0-6.7-0.5-9.9-1.4V249c0,6.6,7.3,14.6,13.9,14.6h183.9c6.6,0,13.9-8,13.9-14.6v-70.8C251.4,179.2,248.1,179.7,244.6,179.7
		L244.6,179.7z M243.7,67.2l0.7,0.4L243.7,67.2z M57.2,57.9"/>
	<rect id="XMLID_366_" x="5.6" y="-3.7" class="st7" width="310.7" height="276.8"/>
</g>
<g id="XMLID_244_">
	<path id="XMLID_385_" class="st8" d="M183,110V36H71.6C55.7,36,42,51.5,42,67.4v170.7C42,254,55.7,264,71.6,264h147.9
		c15.9,0,31.5-10,31.5-25.9V110H183z M72.5,110h73.8c4.2,0,7.7,2.3,7.7,6.5s-3.4,6.5-7.7,6.5H72.5c-4.2,0-7.7-2.3-7.7-6.5
		S68.2,110,72.5,110z M72.5,159h87.7c4.2,0,7.7,2.5,7.7,6c0,3.5-3.4,6-7.7,6H72.5c-4.2,0-7.7-2.5-7.7-6
		C64.8,161.5,68.2,159,72.5,159z M186.3,214H72.5c-4.2,0-7.7-1.8-7.7-6c0-4.2,3.4-6,7.7-6h113.8c4.2,0,7.7,1.8,7.7,6
		C194,212.2,190.5,214,186.3,214z"/>
	<path id="XMLID_361_" class="st8" d="M254.7,104.7h-47.7c-10.2,0-18.5-8.3-18.5-18.5V38.6L254.7,104.7z"/>
</g>
</svg>
