<?xml version="1.0" encoding="utf-8"?>
<!-- Generator: Adobe Illustrator 19.0.0, SVG Export Plug-In . SVG Version: 6.00 Build 0)  -->
<svg version="1.1" id="图层_1" xmlns="http://www.w3.org/2000/svg" xmlns:xlink="http://www.w3.org/1999/xlink" x="0px" y="0px"
	 viewBox="0 0 200 200" style="enable-background:new 0 0 200 200;" xml:space="preserve">
<style type="text/css">
	.st0{display:none;}
	.st1{display:inline;fill:#424242;}
	.st2{display:inline;}
	.st3{fill:#424242;}
	.st4{display:inline;fill:#EA5619;}
	.st5{fill:#EA5619;}
</style>
<g id="XMLID_21_" class="st0">
	<path id="XMLID_39_" class="st1" d="M39,95.2V167h123V95.2l-61.5-69.5L39,95.2z M155,160H46V97.2l54.5-61.9L155,97.2V160z"/>
	<path id="XMLID_44_" class="st1" d="M100.5,114.6c-12.7,0-23.5,10.3-23.5,23.1V167h47v-29.3C124,124.9,113.2,114.6,100.5,114.6z
		 M117,160H84v-22.3c0-9.6,6.9-17.3,16.5-17.3s16.5,7.7,16.5,17.3V160z"/>
</g>
<g id="XMLID_32_" class="st0">
	<path id="XMLID_49_" class="st1" d="M173,76.4c0-7.4-6-13.4-13.4-13.4H39.4C32,63,26,69,26,76.4v67.2c0,7.4,6,13.4,13.4,13.4h120.2
		c7.4,0,13.4-6,13.4-13.4V76.4z M167,140c0,5.5-4.5,10-10,10H43c-5.5,0-10-4.5-10-10V80c0-5.5,4.5-10,10-10H157c5.5,0,10,4.5,10,10
		V140z"/>
	<path id="XMLID_52_" class="st1" d="M123.8,92c-7.4,0-12.8,4.9-12.8,12.3v11.2c0,7.4,5.4,14.6,12.8,14.6H174V92H123.8z M167,123
		h-39.9c-5.5,0-9.1-5.4-9.1-10.9v-4.5c0-5.5,3.6-8.6,9.1-8.6H167V123z"/>
	<path id="XMLID_55_" class="st1" d="M138.6,102c-4.9,0-8.9,4-8.9,8.9c0,4.9,4,8.9,8.9,8.9s8.9-4,8.9-8.9
		C147.5,106,143.5,102,138.6,102z M138.6,113.2c-1.2,0-2.2-1-2.2-2.2c0-1.2,1-2.2,2.2-2.2c1.2,0,2.2,1,2.2,2.2
		C140.8,112.2,139.8,113.2,138.6,113.2z"/>
	<polygon id="XMLID_61_" class="st1" points="54.2,63 82.7,34.5 111.2,63 120.4,63 82.7,25.3 45,63 	"/>
	<polygon id="XMLID_35_" class="st1" points="116.9,18.9 94.2,41.6 98.8,46.2 116.9,28 151.9,63 161,63 	"/>
</g>
<g id="XMLID_34_" class="st0">
	<path id="XMLID_59_" class="st1" d="M42.9,33.5H25.6c-0.8,0-1.5-0.7-1.5-1.5v-3.7c0-0.8,0.7-1.5,1.5-1.5h17.3
		c0.8,0,1.5,0.7,1.5,1.5V32C44.4,32.8,43.7,33.5,42.9,33.5z"/>
	<path id="XMLID_65_" class="st1" d="M138.1,136H69.9c-0.8,0-1.5-0.7-1.5-1.5v-3.7c0-0.8,0.7-1.5,1.5-1.5h68.3
		c0.8,0,1.5,0.7,1.5,1.5v3.7C139.6,135.3,139,136,138.1,136z"/>
	<path id="XMLID_66_" class="st1" d="M169.8,46.7H47.5V40h122.3c0.8,0,1.5,0.7,1.5,1.5v3.7C171.3,46,170.6,46.7,169.8,46.7z"/>
	<path id="XMLID_68_" class="st1" d="M143.6,107.5L164.7,42c0.3-0.8,1.1-1.2,1.9-1l3.5,1.1c0.8,0.3,1.2,1.1,1,1.9L150,109.6
		c-0.3,0.8-1.1,1.2-1.9,1l-3.5-1.1C143.8,109.1,143.3,108.3,143.6,107.5z"/>
	<path id="XMLID_67_" class="st1" d="M149.5,109.7l-69.8,5.8c-0.8,0.1-1.6-0.5-1.6-1.4l-0.3-3.7c-0.1-0.8,0.5-1.6,1.4-1.6l69.8-5.8
		c0.8-0.1,1.6,0.5,1.6,1.4l0.3,3.7C150.9,108.9,150.3,109.7,149.5,109.7z"/>
	<path id="XMLID_63_" class="st1" d="M72.6,134.3l-3.6,1c-0.8,0.2-1.6-0.2-1.8-1l-29-104.3c-0.2-0.8,0.2-1.6,1-1.8l3.6-1
		c0.8-0.2,1.6,0.2,1.8,1l29,104.3C73.9,133.2,73.4,134.1,72.6,134.3z"/>
	<path id="XMLID_74_" class="st1" d="M66.8,144.2c-8,0-14.5,6.5-14.5,14.5c0,8,6.5,14.5,14.5,14.5s14.5-6.5,14.5-14.5
		C81.3,150.7,74.8,144.2,66.8,144.2z M66.8,166.5c-4.3,0-7.8-3.5-7.8-7.8c0-4.3,3.5-7.8,7.8-7.8c4.3,0,7.8,3.5,7.8,7.8
		C74.6,163,71.1,166.5,66.8,166.5z"/>
	<path id="XMLID_69_" class="st1" d="M145.3,144.2c-8,0-14.5,6.5-14.5,14.5c0,8,6.5,14.5,14.5,14.5c8,0,14.5-6.5,14.5-14.5
		C159.8,150.7,153.3,144.2,145.3,144.2z M145.3,166.5c-4.3,0-7.8-3.5-7.8-7.8c0-4.3,3.5-7.8,7.8-7.8c4.3,0,7.8,3.5,7.8,7.8
		C153.1,163,149.6,166.5,145.3,166.5z"/>
</g>
<g id="XMLID_60_" class="st0">
	<path id="XMLID_92_" class="st1" d="M99.3,31.8c-19.7,0-35.7,16-35.7,35.7s16,35.7,35.7,35.7s35.7-16,35.7-35.7S119,31.8,99.3,31.8
		z M99.3,96.5c-16,0-29-13-29-29s13-29,29-29c16,0,29,13,29,29S115.3,96.5,99.3,96.5z"/>
	<g id="XMLID_88_" class="st2">
		<path id="XMLID_93_" class="st3" d="M120.8,90.9l-2.4,6.1h-1.2c25.1,7,43.4,30.2,43.4,57.6c0,3.3-0.3,5.4-0.8,9.4h6.8
			c0.5-4,0.7-6.3,0.7-9.6C167.3,124.6,147.8,99.5,120.8,90.9z"/>
		<path id="XMLID_94_" class="st3" d="M83.4,97h-2.2l-2.5-5.8c-26.4,9-45.4,33.8-45.4,63.3c0,3.3,0.2,5.5,0.7,9.5h6.8
			c-0.5-4-0.8-6.2-0.8-9.4C40,127.1,58.4,104,83.4,97z"/>
	</g>
</g>
<g id="XMLID_31_" class="st0">
	<path id="XMLID_46_" class="st4" d="M102,19.9L40,90.1V165h38v-32.1c0-12.9,11.1-23.3,24-23.3s24,10.4,24,23.3V165h38V90.1
		L102,19.9z"/>
	<path id="XMLID_48_" class="st4" d="M102,115.4c-9.6,0-17,9.1-17,20.2V165h34v-29.3C119,124.5,111.6,115.4,102,115.4z"/>
</g>
<g id="XMLID_36_">
	<path id="XMLID_57_" class="st5" d="M124.5,100H175V83.9c0-7.5-6.3-13.9-13.7-13.9H39.6C32.2,70,26,76.4,26,83.9v67.6
		c0,7.5,6.2,13.5,13.6,13.5h121.6c7.5,0,13.7-6.1,13.7-13.5V138h-50.5c-7.5,0-12.5-7.2-12.5-14.7v-11.3C112,104.6,117,100,124.5,100
		z"/>
	<path id="XMLID_56_" class="st5" d="M139.4,109.8c-5,0-9,4-9,9c0,5,4,9,9,9c5,0,9-4,9-9C148.4,113.8,144.4,109.8,139.4,109.8z"/>
	<polygon id="XMLID_41_" class="st5" points="54.2,70 83,41.2 111.8,70 121,70 83,32 45,70 	"/>
	<polygon id="XMLID_40_" class="st5" points="117.5,25.7 94.6,48.7 99.2,53.4 117.5,34.9 152.8,70 162.1,70 	"/>
</g>
<g id="XMLID_62_" class="st0">
	<path id="XMLID_85_" class="st4" d="M49.9,38.7H32.4c-0.8,0-1.5-0.7-1.5-1.5v-3.8c0-0.8,0.7-1.5,1.5-1.5h17.5
		c0.8,0,1.5,0.7,1.5,1.5v3.8C51.4,38,50.7,38.7,49.9,38.7z"/>
	<path id="XMLID_84_" class="st4" d="M146,142.1H77c-0.8,0-1.5-0.7-1.5-1.5v-3.8c0-0.8,0.7-1.5,1.5-1.5H146c0.8,0,1.5,0.7,1.5,1.5
		v3.8C147.5,141.5,146.8,142.1,146,142.1z"/>
	<path id="XMLID_83_" class="st4" d="M177.9,52H54.5v-6.8h123.4c0.8,0,1.5,0.7,1.5,1.5v3.8C179.4,51.4,178.7,52,177.9,52z"/>
	<path id="XMLID_82_" class="st4" d="M151.4,113.4l21.3-66.1c0.3-0.8,1.1-1.2,1.9-1l3.6,1.2c0.8,0.3,1.2,1.1,1,1.9l-21.3,66.1
		c-0.3,0.8-1.1,1.2-1.9,1l-3.6-1.2C151.6,115,151.2,114.2,151.4,113.4z"/>
	<path id="XMLID_81_" class="st4" d="M157.4,115.6l-70.4,5.9c-0.8,0.1-1.6-0.5-1.6-1.4l-0.3-3.7c-0.1-0.8,0.5-1.6,1.4-1.6l70.4-5.9
		c0.8-0.1,1.6,0.5,1.6,1.4l0.3,3.7C158.8,114.8,158.2,115.5,157.4,115.6z"/>
	<path id="XMLID_80_" class="st4" d="M79.8,140.4l-3.6,1c-0.8,0.2-1.6-0.2-1.8-1L45.1,35.1c-0.2-0.8,0.2-1.6,1-1.8l3.6-1
		c0.8-0.2,1.6,0.2,1.8,1l29.2,105.3C81.1,139.3,80.6,140.2,79.8,140.4z"/>
	<path id="XMLID_77_" class="st4" d="M74,150.4c-8.1,0-14.6,6.6-14.6,14.6s6.6,14.6,14.6,14.6s14.6-6.6,14.6-14.6
		S82.1,150.4,74,150.4z"/>
	<path id="XMLID_64_" class="st4" d="M153.2,150.4c-8.1,0-14.6,6.6-14.6,14.6s6.6,14.6,14.6,14.6s14.6-6.6,14.6-14.6
		S161.3,150.4,153.2,150.4z"/>
	<polygon id="XMLID_70_" class="st4" points="70.8,122.7 51.4,48.7 176.5,46.9 156.4,116 	"/>
</g>
<g id="XMLID_86_" class="st0">
	<path id="XMLID_96_" class="st4" d="M99.3,31.7c-19.9,0-36,16.1-36,36s16.1,36,36,36s36-16.1,36-36S119.2,31.7,99.3,31.7z"/>
	<path id="XMLID_97_" class="st4" d="M121.1,91.5l-1.9,5c-5.8-1.8-11.9-2.7-18.2-2.7c-7,0-13.8,1.2-20.1,3.3l-2.2-5.2
		c-26.6,9.1-45.8,34-45.8,63.7c0,3.3,0.2,5.4,0.7,9.4h5.7h1.1h120.1h2.2h4.6c0.5-4,0.7-6.2,0.7-9.5
		C168,125.4,148.3,100.3,121.1,91.5z"/>
</g>
</svg>
