<?xml version="1.0" encoding="utf-8"?>
<!-- Generator: Adobe Illustrator 19.0.0, SVG Export Plug-In . SVG Version: 6.00 Build 0)  -->
<svg version="1.1" id="图层_1" xmlns="http://www.w3.org/2000/svg" xmlns:xlink="http://www.w3.org/1999/xlink" x="0px" y="0px"
	 viewBox="0 0 200 200" style="enable-background:new 0 0 200 200;" xml:space="preserve">
<style type="text/css">
	.st0{display:none;}
	.st1{display:inline;fill:#424242;}
	.st2{fill:#424242;}
	.st3{display:inline;}
</style>
<g id="XMLID_21_" class="st0">
	<path id="XMLID_39_" class="st1" d="M39,95.2V167h123V95.2l-61.5-69.5L39,95.2z M155,160H46V97.2l54.5-61.9L155,97.2V160z"/>
	<path id="XMLID_44_" class="st1" d="M100.5,114.6c-12.7,0-23.5,10.3-23.5,23.1V167h47v-29.3C124,124.9,113.2,114.6,100.5,114.6z
		 M117,160H84v-22.3c0-9.6,6.9-17.3,16.5-17.3s16.5,7.7,16.5,17.3V160z"/>
</g>
<g id="XMLID_32_">
	<path id="XMLID_49_" class="st2" d="M173,76.4c0-7.4-6-13.4-13.4-13.4H39.4C32,63,26,69,26,76.4v67.2c0,7.4,6,13.4,13.4,13.4h120.2
		c7.4,0,13.4-6,13.4-13.4V76.4z M167,140c0,5.5-4.5,10-10,10H43c-5.5,0-10-4.5-10-10V80c0-5.5,4.5-10,10-10H157c5.5,0,10,4.5,10,10
		V140z"/>
	<path id="XMLID_52_" class="st2" d="M123.8,92c-7.4,0-12.8,4.9-12.8,12.3v11.2c0,7.4,5.4,14.6,12.8,14.6H174V92H123.8z M167,123
		h-39.9c-5.5,0-9.1-5.4-9.1-10.9v-4.5c0-5.5,3.6-8.6,9.1-8.6H167V123z"/>
	<path id="XMLID_55_" class="st2" d="M138.6,102c-4.9,0-8.9,4-8.9,8.9c0,4.9,4,8.9,8.9,8.9s8.9-4,8.9-8.9
		C147.5,106,143.5,102,138.6,102z M138.6,113.2c-1.2,0-2.2-1-2.2-2.2c0-1.2,1-2.2,2.2-2.2c1.2,0,2.2,1,2.2,2.2
		C140.8,112.2,139.8,113.2,138.6,113.2z"/>
	<polygon id="XMLID_61_" class="st2" points="54.2,63 82.7,34.5 111.2,63 120.4,63 82.7,25.3 45,63 	"/>
	<polygon id="XMLID_35_" class="st2" points="116.9,18.9 94.2,41.6 98.8,46.2 116.9,28 151.9,63 161,63 	"/>
</g>
<g id="XMLID_34_" class="st0">
	<path id="XMLID_59_" class="st1" d="M34.7,35H17.4c-0.8,0-1.5-0.7-1.5-1.5v-3.7c0-0.8,0.7-1.5,1.5-1.5h17.3c0.8,0,1.5,0.7,1.5,1.5
		v3.7C36.2,34.3,35.5,35,34.7,35z"/>
	<path id="XMLID_65_" class="st1" d="M129.9,137.5H61.7c-0.8,0-1.5-0.7-1.5-1.5v-3.7c0-0.8,0.7-1.5,1.5-1.5h68.3
		c0.8,0,1.5,0.7,1.5,1.5v3.7C131.4,136.8,130.8,137.5,129.9,137.5z"/>
	<path id="XMLID_66_" class="st1" d="M161.6,48.2H39.3v-6.7h122.3c0.8,0,1.5,0.7,1.5,1.5v3.7C163.1,47.5,162.4,48.2,161.6,48.2z"/>
	<path id="XMLID_68_" class="st1" d="M135.4,109l21.1-65.5c0.3-0.8,1.1-1.2,1.9-1l3.5,1.1c0.8,0.3,1.2,1.1,1,1.9l-21.1,65.5
		c-0.3,0.8-1.1,1.2-1.9,1l-3.5-1.1C135.6,110.6,135.1,109.8,135.4,109z"/>
	<path id="XMLID_67_" class="st1" d="M141.3,111.2L71.5,117c-0.8,0.1-1.6-0.5-1.6-1.4l-0.3-3.7c-0.1-0.8,0.5-1.6,1.4-1.6l69.8-5.8
		c0.8-0.1,1.6,0.5,1.6,1.4l0.3,3.7C142.7,110.4,142.1,111.1,141.3,111.2z"/>
	<path id="XMLID_63_" class="st1" d="M64.4,135.8l-3.6,1c-0.8,0.2-1.6-0.2-1.8-1L30,31.4c-0.2-0.8,0.2-1.6,1-1.8l3.6-1
		c0.8-0.2,1.6,0.2,1.8,1l29,104.3C65.7,134.7,65.2,135.5,64.4,135.8z"/>
	<path id="XMLID_74_" class="st1" d="M58.6,145.7c-8,0-14.5,6.5-14.5,14.5c0,8,6.5,14.5,14.5,14.5s14.5-6.5,14.5-14.5
		C73.1,152.2,66.6,145.7,58.6,145.7z M58.6,168c-4.3,0-7.8-3.5-7.8-7.8c0-4.3,3.5-7.8,7.8-7.8c4.3,0,7.8,3.5,7.8,7.8
		C66.4,164.5,62.9,168,58.6,168z"/>
	<path id="XMLID_69_" class="st1" d="M137.1,145.7c-8,0-14.5,6.5-14.5,14.5c0,8,6.5,14.5,14.5,14.5s14.5-6.5,14.5-14.5
		C151.6,152.2,145.1,145.7,137.1,145.7z M137.1,168c-4.3,0-7.8-3.5-7.8-7.8c0-4.3,3.5-7.8,7.8-7.8c4.3,0,7.8,3.5,7.8,7.8
		C144.9,164.5,141.4,168,137.1,168z"/>
</g>
<g id="XMLID_60_" class="st0">
	<path id="XMLID_92_" class="st1" d="M86.3,34.8c-19.7,0-35.7,16-35.7,35.7s16,35.7,35.7,35.7s35.7-16,35.7-35.7S106,34.8,86.3,34.8
		z M86.3,99.5c-16,0-29-13-29-29s13-29,29-29c16,0,29,13,29,29S102.3,99.5,86.3,99.5z"/>
	<g id="XMLID_88_" class="st3">
		<path id="XMLID_93_" class="st2" d="M107.8,93.9l-2.4,6.1h-1.2c25.1,7,43.4,30.2,43.4,57.6c0,3.3-0.3,5.4-0.8,9.4h6.8
			c0.5-4,0.7-6.3,0.7-9.6C154.3,127.6,134.8,102.5,107.8,93.9z"/>
		<path id="XMLID_94_" class="st2" d="M70.4,100h-2.2l-2.5-5.8c-26.4,9-45.4,33.8-45.4,63.3c0,3.3,0.2,5.5,0.7,9.5h6.8
			c-0.5-4-0.8-6.2-0.8-9.4C27,130.1,45.4,107,70.4,100z"/>
	</g>
</g>
</svg>
