<?xml version="1.0" encoding="utf-8"?>
<!-- Generator: Adobe Illustrator 19.0.0, SVG Export Plug-In . SVG Version: 6.00 Build 0)  -->
<svg version="1.1" id="图层_1" xmlns="http://www.w3.org/2000/svg" xmlns:xlink="http://www.w3.org/1999/xlink" x="0px" y="0px"
	 viewBox="0 0 200 200" style="enable-background:new 0 0 200 200;" xml:space="preserve">
<style type="text/css">
	.st0{fill:#B8B8B8;}
</style>
<g id="XMLID_2_">
	<path id="XMLID_16_" class="st0" d="M99,64.2c-34.3,0-64.6,17.4-82.4,43.8c17.9,26.4,48.1,43.8,82.4,43.8s64.6-17.4,82.4-43.8
		C163.6,81.5,133.3,64.2,99,64.2z M98.9,142.1c-26.9,0-53.8-13.6-67.8-34.3c14-20.7,40.9-34.3,67.8-34.3s53.8,13.6,67.8,34.3
		C152.7,128.5,125.8,142.1,98.9,142.1z"/>
	<circle id="XMLID_6_" class="st0" cx="99" cy="108" r="25.1"/>
	<rect id="XMLID_12_" x="94.1" y="40.9" class="st0" width="9.7" height="25.8"/>
	
		<rect id="XMLID_17_" x="60.2" y="45.7" transform="matrix(0.9397 -0.342 0.342 0.9397 -16.1248 25.7818)" class="st0" width="9.7" height="25.8"/>
	
		<rect id="XMLID_19_" x="29.1" y="62.1" transform="matrix(0.7071 -0.7071 0.7071 0.7071 -43.1301 45.9644)" class="st0" width="9.7" height="25.8"/>
	
		<rect id="XMLID_20_" x="128.7" y="45.7" transform="matrix(-0.9397 -0.342 0.342 -0.9397 238.9933 159.3708)" class="st0" width="9.7" height="25.8"/>
	
		<rect id="XMLID_18_" x="159.8" y="62.1" transform="matrix(-0.7071 -0.7071 0.7071 -0.7071 228.0516 244.5518)" class="st0" width="9.7" height="25.8"/>
</g>
</svg>
